M48
; DRILL file {KiCad (6.0.2)} date Mon Apr 18 10:54:02 2022
; FORMAT={-:-/ absolute / inch / decimal}
; #@! TF.CreationDate,2022-04-18T10:54:02+08:00
; #@! TF.GenerationSoftware,Kicad,Pcbnew,(6.0.2)
; #@! TF.FileFunction,Plated,1,6,PTH
FMAT,2
INCH
; #@! TA.AperFunction,Plated,PTH,ComponentDrill
T1C0.0079
; #@! TA.AperFunction,Plated,PTH,ComponentDrill
T2C0.0091
; #@! TA.AperFunction,Plated,PTH,ViaDrill
T3C0.0118
; #@! TA.AperFunction,Plated,PTH,ComponentDrill
T4C0.0118
; #@! TA.AperFunction,Plated,PTH,ViaDrill
T5C0.0157
; #@! TA.AperFunction,Plated,PTH,ComponentDrill
T6C0.0236
; #@! TA.AperFunction,Plated,PTH,ComponentDrill
T7C0.0315
; #@! TA.AperFunction,Plated,PTH,ComponentDrill
T8C0.0335
; #@! TA.AperFunction,Plated,PTH,ComponentDrill
T9C0.0354
; #@! TA.AperFunction,Plated,PTH,ComponentDrill
T10C0.0394
; #@! TA.AperFunction,Plated,PTH,ComponentDrill
T11C0.0400
; #@! TA.AperFunction,Plated,PTH,ComponentDrill
T12C0.0402
; #@! TA.AperFunction,Plated,PTH,ComponentDrill
T13C0.0472
; #@! TA.AperFunction,Plated,PTH,ComponentDrill
T14C0.0551
; #@! TA.AperFunction,Plated,PTH,ComponentDrill
T15C0.0630
; #@! TA.AperFunction,Plated,PTH,ComponentDrill
T16C0.0650
; #@! TA.AperFunction,Plated,PTH,ComponentDrill
T17C0.0787
; #@! TA.AperFunction,Plated,PTH,ComponentDrill
T18C0.1260
%
G90
G05
T1
X6.7401Y-2.7539
X6.7401Y-2.7925
X6.7401Y-2.8311
X6.7787Y-2.7539
X6.7787Y-2.7925
X6.7787Y-2.8311
X6.8172Y-2.7539
X6.8172Y-2.7925
X6.8172Y-2.8311
T2
X4.4688Y-2.9554
X4.4688Y-2.9918
X4.4688Y-3.0282
X4.4688Y-3.0646
X4.4688Y-3.4454
X4.4688Y-3.4818
X4.4688Y-3.5182
X4.4688Y-3.5546
X4.4688Y-3.9254
X4.4688Y-3.9618
X4.4688Y-3.9982
X4.4688Y-4.0346
X4.4688Y-4.405
X4.4688Y-4.4414
X4.4688Y-4.4778
X4.4688Y-4.5142
X4.5052Y-2.9554
X4.5052Y-2.9918
X4.5052Y-3.0282
X4.5052Y-3.0646
X4.5052Y-3.4454
X4.5052Y-3.4818
X4.5052Y-3.5182
X4.5052Y-3.5546
X4.5052Y-3.9254
X4.5052Y-3.9618
X4.5052Y-3.9982
X4.5052Y-4.0346
X4.5052Y-4.405
X4.5052Y-4.4414
X4.5052Y-4.4778
X4.5052Y-4.5142
X4.5416Y-2.9554
X4.5416Y-2.9918
X4.5416Y-3.0282
X4.5416Y-3.0646
X4.5416Y-3.4454
X4.5416Y-3.4818
X4.5416Y-3.5182
X4.5416Y-3.5546
X4.5416Y-3.9254
X4.5416Y-3.9618
X4.5416Y-3.9982
X4.5416Y-4.0346
X4.5416Y-4.405
X4.5416Y-4.4414
X4.5416Y-4.4778
X4.5416Y-4.5142
X4.578Y-2.9554
X4.578Y-2.9918
X4.578Y-3.0282
X4.578Y-3.0646
X4.578Y-3.4454
X4.578Y-3.4818
X4.578Y-3.5182
X4.578Y-3.5546
X4.578Y-3.9254
X4.578Y-3.9618
X4.578Y-3.9982
X4.578Y-4.0346
X4.578Y-4.405
X4.578Y-4.4414
X4.578Y-4.4778
X4.578Y-4.5142
X6.2447Y-3.5187
X6.2449Y-3.4892
X6.2795Y-3.4892
X6.2795Y-3.5187
X6.3141Y-3.5187
X6.3142Y-3.4892
T3
X3.4114Y-2.968
X3.4114Y-3.0584
X3.4114Y-3.1488
X3.4114Y-3.2391
X3.4114Y-3.3295
X3.4114Y-3.4199
X3.4114Y-3.5103
X3.4114Y-3.6007
X3.4114Y-3.691
X3.4114Y-3.7814
X3.4114Y-3.8718
X3.4114Y-3.9622
X3.4114Y-4.0526
X3.4114Y-4.1429
X3.4114Y-4.2333
X3.4114Y-4.3237
X3.4114Y-4.4141
X3.4114Y-4.5045
X3.4114Y-4.5948
X3.4114Y-4.6852
X3.4114Y-4.7756
X3.4114Y-4.866
X3.4114Y-4.9564
X3.4114Y-5.0467
X3.4252Y-2.3878
X3.4252Y-2.4921
X3.4252Y-2.624
X3.4252Y-2.7362
X3.4665Y-2.3882
X3.5063Y-5.0563
X3.6678Y-5.0563
X3.7008Y-2.3882
X3.8292Y-5.0563
X3.9449Y-4.0984
X3.9528Y-3.5787
X3.9528Y-4.9571
X3.9567Y-3.0315
X3.9567Y-3.9646
X3.9567Y-4.2244
X3.9685Y-4.9134
X3.9724Y-4.7598
X3.975Y-2.66
X3.9764Y-4.6614
X3.9824Y-3.0504
X3.9873Y-3.1602
X3.9882Y-4.9571
X3.9887Y-3.44
X3.99Y-3.3104
X3.9906Y-5.0563
X3.991Y-3.1969
X3.9918Y-5.0201
X3.9942Y-4.7874
X3.9942Y-4.8955
X3.9944Y-4.355
X3.9959Y-3.9646
X3.9961Y-4.6339
X3.9961Y-3.5768
X3.997Y-4.485
X3.9977Y-4.0949
X3.9981Y-4.2252
X3.9987Y-3.7191
X4.0031Y-3.8447
X4.0281Y-2.6499
X4.063Y-4.5354
X4.065Y-2.66
X4.09Y-2.685
X4.105Y-2.765
X4.11Y-2.555
X4.1191Y-3.375
X4.1208Y-2.985
X4.1241Y-3.51
X4.1241Y-3.77
X4.1241Y-4.03
X4.1241Y-3.24
X4.1241Y-4.4201
X4.129Y-3.6409
X4.1335Y-3.8992
X4.135Y-4.555
X4.1357Y-4.29
X4.1361Y-3.1144
X4.14Y-2.76
X4.1401Y-4.71
X4.1401Y-4.8299
X4.1428Y-4.16
X4.1448Y-3.2191
X4.1465Y-4.9383
X4.1483Y-3.35
X4.152Y-5.0563
X4.153Y-2.9809
X4.153Y-4.4222
X4.1538Y-4.5209
X4.1571Y-3.8757
X4.1576Y-3.4304
X4.1584Y-3.092
X4.1599Y-2.937
X4.1599Y-4.376
X4.16Y-4.81
X4.1607Y-3.512
X4.1609Y-3.9295
X4.1621Y-3.0492
X4.1634Y-4.0309
X4.1639Y-3.6409
X4.1643Y-4.3433
X4.165Y-3.75
X4.1656Y-3.5892
X4.1686Y-3.5537
X4.169Y-4.29
X4.1697Y-4.9147
X4.1721Y-4.5836
X4.1787Y-4.695
X4.1798Y-4.16
X4.1822Y-2.7728
X4.1979Y-2.8872
X4.2004Y-4.5806
X4.2008Y-3.0272
X4.23Y-2.76
X4.2324Y-4.0358
X4.2324Y-4.0693
X4.2343Y-3.427
X4.2346Y-3.9046
X4.2369Y-2.5447
X4.2489Y-2.8248
X4.2501Y-3.3051
X4.2505Y-3.8671
X4.2528Y-4.6514
X4.2587Y-4.1707
X4.2692Y-2.682
X4.2729Y-4.2776
X4.275Y-2.715
X4.295Y-2.805
X4.3134Y-5.0563
X4.34Y-3.485
X4.34Y-3.965
X4.3426Y-3.7967
X4.343Y-3.5201
X4.345Y-2.995
X4.345Y-3.03
X4.345Y-4.0
X4.3471Y-4.4831
X4.3471Y-4.652
X4.3479Y-4.4312
X4.35Y-3.705
X4.355Y-3.195
X4.362Y-4.1633
X4.37Y-2.74
X4.3704Y-4.2539
X4.3747Y-2.7988
X4.375Y-3.52
X4.3756Y-3.4848
X4.3756Y-3.9655
X4.3756Y-4.4461
X4.3757Y-4.0073
X4.3759Y-3.3012
X4.3788Y-4.4891
X4.3789Y-2.9924
X4.3789Y-3.0297
X4.415Y-2.555
X4.415Y-2.6838
X4.4171Y-3.4103
X4.4177Y-3.8572
X4.4177Y-3.8904
X4.4178Y-3.3781
X4.4178Y-3.5897
X4.418Y-3.6194
X4.4183Y-2.8871
X4.4183Y-2.9203
X4.4184Y-4.0698
X4.4185Y-4.3367
X4.4185Y-4.3699
X4.4186Y-4.0995
X4.419Y-3.0997
X4.4192Y-4.5493
X4.4192Y-3.1294
X4.4194Y-4.579
X4.4361Y-2.8412
X4.4361Y-3.3314
X4.4361Y-3.8113
X4.4475Y-4.6376
X4.448Y-4.2908
X4.4487Y-3.1881
X4.45Y-4.155
X4.455Y-3.675
X4.4574Y-3.6374
X4.4602Y-2.8648
X4.4602Y-3.355
X4.4602Y-3.8349
X4.4616Y-3.1494
X4.4616Y-4.1177
X4.4616Y-4.5972
X4.465Y-4.325
X4.4749Y-5.0563
X4.5028Y-3.6312
X4.5069Y-3.1494
X4.5069Y-4.1103
X4.5069Y-4.5898
X4.51Y-2.775
X4.525Y-2.695
X4.5383Y-2.8789
X4.5383Y-3.3691
X4.5383Y-3.849
X4.5383Y-4.3285
X4.575Y-2.795
X4.5902Y-4.2915
X4.5985Y-3.8024
X4.6064Y-3.3341
X4.6127Y-2.9018
X4.615Y-3.265
X4.64Y-4.21
X4.6508Y-3.4607
X4.6508Y-3.9406
X4.6509Y-4.4203
X4.6519Y-3.5287
X4.6528Y-4.4884
X4.655Y-3.735
X4.6571Y-4.0075
X4.6585Y-3.0122
X4.6586Y-3.3594
X4.66Y-2.725
X4.6601Y-2.8707
X4.6601Y-3.8408
X4.6601Y-4.3203
X4.6623Y-4.3768
X4.6636Y-2.9587
X4.6648Y-3.3951
X4.6717Y-2.9205
X4.6729Y-3.0451
X4.6808Y-3.5016
X4.6808Y-3.9816
X4.6808Y-4.4612
X4.6913Y-3.0017
X4.7034Y-3.8642
X4.7137Y-3.2399
X4.715Y-4.84
X4.7153Y-2.7104
X4.7163Y-3.4293
X4.7174Y-3.9082
X4.72Y-2.855
X4.725Y-2.93
X4.77Y-4.835
X4.79Y-2.56
X4.8103Y-2.8584
X4.835Y-2.675
X4.8463Y-3.6537
X4.86Y-4.84
X4.8836Y-3.3672
X4.8857Y-3.8593
X4.8887Y-4.3472
X4.89Y-4.82
X4.92Y-3.86
X4.925Y-2.845
X4.925Y-3.37
X4.925Y-4.345
X4.925Y-4.82
X4.9287Y-4.6365
X4.94Y-3.235
X4.94Y-3.285
X4.95Y-3.785
X4.9574Y-3.8271
X4.96Y-4.345
X4.9621Y-4.3106
X4.9624Y-3.86
X4.965Y-3.37
X4.965Y-3.92
X4.965Y-4.74
X4.965Y-4.785
X4.965Y-4.82
X4.975Y-2.845
X4.975Y-4.955
X4.99Y-4.005
X4.99Y-4.04
X4.995Y-4.875
X5.0045Y-4.08
X5.0188Y-3.0636
X5.02Y-3.285
X5.02Y-3.33
X5.025Y-3.1226
X5.0397Y-3.5697
X5.04Y-3.495
X5.045Y-4.975
X5.0469Y-3.0862
X5.0495Y-4.629
X5.0551Y-2.77
X5.0608Y-2.6437
X5.065Y-4.01
X5.065Y-4.085
X5.1071Y-3.745
X5.1076Y-3.4826
X5.11Y-3.955
X5.115Y-4.085
X5.12Y-4.01
X5.1223Y-3.1879
X5.135Y-3.31
X5.1386Y-3.4953
X5.14Y-3.37
X5.14Y-4.735
X5.1432Y-3.6798
X5.145Y-3.715
X5.1454Y-3.6464
X5.15Y-3.795
X5.17Y-4.085
X5.18Y-4.025
X5.1823Y-4.71
X5.2177Y-4.71
X5.2437Y-3.5028
X5.2449Y-3.6736
X5.245Y-3.32
X5.2483Y-3.3669
X5.2498Y-3.5805
X5.2499Y-3.4003
X5.265Y-4.84
X5.28Y-3.595
X5.284Y-3.366
X5.2891Y-3.2891
X5.305Y-4.665
X5.315Y-4.03
X5.3181Y-3.9204
X5.3192Y-3.7583
X5.3232Y-3.724
X5.3244Y-3.5144
X5.345Y-3.185
X5.345Y-4.875
X5.3511Y-3.9148
X5.355Y-3.15
X5.3876Y-3.8016
X5.395Y-4.845
X5.3975Y-3.4175
X5.4082Y-3.3062
X5.4098Y-3.7542
X5.4121Y-3.17
X5.4124Y-3.7206
X5.42Y-3.793
X5.4225Y-3.3925
X5.4226Y-4.0018
X5.425Y-3.97
X5.4312Y-3.3438
X5.4523Y-3.288
X5.4692Y-3.1703
X5.47Y-4.6
X5.4776Y-3.7895
X5.4786Y-3.309
X5.485Y-2.72
X5.485Y-3.57
X5.5018Y-3.1778
X5.505Y-4.61
X5.509Y-3.6377
X5.5102Y-3.7976
X5.5119Y-3.7045
X5.5119Y-3.671
X5.515Y-3.37
X5.515Y-3.585
X5.5184Y-3.1207
X5.5345Y-4.3299
X5.54Y-3.62
X5.5452Y-3.7174
X5.547Y-3.1642
X5.555Y-3.985
X5.5641Y-3.1198
X5.565Y-3.045
X5.5709Y-4.2717
X5.5797Y-4.3176
X5.59Y-2.825
X5.5923Y-3.58
X5.595Y-4.0968
X5.6048Y-3.1649
X5.6058Y-3.9101
X5.6102Y-3.1319
X5.6149Y-3.0883
X5.6219Y-4.39
X5.6277Y-3.58
X5.6339Y-3.0549
X5.64Y-3.93
X5.645Y-4.08
X5.645Y-4.535
X5.6547Y-3.3685
X5.6587Y-3.6048
X5.6701Y-3.4151
X5.6776Y-2.875
X5.6867Y-3.5447
X5.6879Y-3.4499
X5.7Y-3.34
X5.7047Y-2.9278
X5.71Y-3.5166
X5.71Y-3.475
X5.715Y-3.4297
X5.7194Y-3.7016
X5.73Y-2.9756
X5.73Y-3.585
X5.7302Y-3.67
X5.7424Y-3.5251
X5.745Y-3.935
X5.75Y-2.925
X5.75Y-4.07
X5.7556Y-3.6102
X5.76Y-3.715
X5.76Y-4.395
X5.7646Y-3.7929
X5.7673Y-3.6687
X5.7674Y-3.5786
X5.7674Y-3.7476
X5.7751Y-4.2901
X5.7803Y-2.9603
X5.7865Y-4.3654
X5.7888Y-4.3321
X5.795Y-4.06
X5.8Y-2.87
X5.8071Y-4.304
X5.815Y-4.3831
X5.82Y-2.9278
X5.847Y-4.3957
X5.85Y-4.36
X5.8631Y-2.9561
X5.8642Y-3.5364
X5.8703Y-3.5034
X5.8727Y-4.4213
X5.8748Y-3.3799
X5.875Y-3.22
X5.8761Y-3.1844
X5.8889Y-3.4691
X5.8926Y-3.1476
X5.905Y-3.72
X5.915Y-3.325
X5.915Y-3.49
X5.925Y-3.255
X5.93Y-3.75
X5.93Y-3.805
X5.945Y-2.845
X5.945Y-4.55
X5.95Y-3.315
X5.9582Y-2.9304
X5.96Y-3.16
X5.9766Y-2.9592
X5.9926Y-3.3653
X6.0003Y-2.9313
X6.005Y-5.04
X6.015Y-2.87
X6.021Y-3.1585
X6.0258Y-3.3606
X6.07Y-2.95
X6.08Y-4.52
X6.0822Y-2.8482
X6.085Y-5.04
X6.09Y-3.19
X6.1017Y-3.1587
X6.1074Y-4.6166
X6.1085Y-4.4776
X6.115Y-4.4113
X6.115Y-4.4447
X6.1435Y-3.2235
X6.165Y-3.25
X6.17Y-2.825
X6.17Y-4.8
X6.1732Y-5.04
X6.175Y-2.715
X6.18Y-4.475
X6.2035Y-4.4214
X6.205Y-4.575
X6.215Y-4.8069
X6.24Y-4.445
X6.245Y-4.645
X6.265Y-5.04
X6.2662Y-3.6365
X6.2712Y-3.5971
X6.29Y-2.73
X6.355Y-2.81
X6.36Y-5.04
X6.3629Y-3.5907
X6.3684Y-3.6706
X6.38Y-3.14
X6.3859Y-3.5686
X6.39Y-3.02
X6.395Y-2.6506
X6.4Y-2.795
X6.4Y-4.715
X6.4071Y-3.5477
X6.418Y-3.6696
X6.4457Y-3.5077
X6.45Y-2.775
X6.4567Y-3.7126
X6.465Y-5.04
X6.4862Y-3.4886
X6.495Y-2.645
X6.515Y-2.45
X6.52Y-4.69
X6.53Y-2.555
X6.5344Y-2.9321
X6.535Y-2.77
X6.54Y-2.805
X6.54Y-2.69
X6.54Y-2.725
X6.54Y-2.8868
X6.5456Y-2.9774
X6.555Y-4.705
X6.56Y-2.615
X6.57Y-5.04
X6.575Y-4.805
X6.58Y-4.755
X6.615Y-3.005
X6.62Y-2.61
X6.65Y-2.665
X6.655Y-3.11
X6.6637Y-2.4775
X6.6692Y-2.9126
X6.675Y-5.04
X6.695Y-3.095
X6.695Y-4.705
X6.7Y-3.0169
X6.7018Y-2.8971
X6.7424Y-2.9217
X6.765Y-5.04
X6.7687Y-2.4575
X6.7752Y-2.9149
X6.795Y-2.6
X6.815Y-2.665
X6.8172Y-4.0919
X6.84Y-3.0
X6.855Y-4.335
X6.8575Y-4.7296
X6.8701Y-5.0394
X6.875Y-2.6036
X6.875Y-3.0
X6.9Y-4.8
X6.905Y-2.79
X6.925Y-2.675
X6.9271Y-2.5564
X6.93Y-2.64
X6.9487Y-2.4875
X6.955Y-2.885
X6.995Y-2.69
X7.0028Y-2.79
X7.005Y-2.573
X7.015Y-4.705
X7.06Y-2.685
X7.07Y-2.64
X7.08Y-4.72
X7.095Y-3.06
X7.0976Y-2.9376
X7.1024Y-2.6811
X7.115Y-2.795
X7.115Y-2.905
X7.13Y-2.6014
X7.145Y-2.6498
X7.145Y-2.955
X7.15Y-4.705
X7.155Y-3.05
X7.175Y-2.795
X7.21Y-4.72
X7.31Y-4.775
X7.385Y-4.085
X7.41Y-4.705
X7.465Y-4.71
X7.55Y-4.81
X7.5801Y-4.6998
X7.815Y-4.65
X7.85Y-2.46
X7.85Y-2.53
X7.85Y-2.625
X7.85Y-2.705
X7.85Y-2.8
X7.85Y-2.875
X7.85Y-2.95
X7.85Y-4.655
X7.855Y-3.035
X7.86Y-4.695
T4
X6.0053Y-3.2403
X6.0053Y-3.2797
X6.0447Y-3.2403
X6.0447Y-3.2797
X6.9774Y-4.0219
X6.9774Y-4.0573
X6.9774Y-4.0927
X6.9774Y-4.1281
X7.0129Y-4.0219
X7.0129Y-4.0573
X7.0129Y-4.0927
X7.0129Y-4.1281
X7.0483Y-4.0219
X7.0483Y-4.0573
X7.0483Y-4.0927
X7.0483Y-4.1281
X7.0837Y-4.0219
X7.0837Y-4.0573
X7.0837Y-4.0927
X7.0837Y-4.1281
X7.1192Y-4.0219
X7.1192Y-4.0573
X7.1192Y-4.0927
X7.1192Y-4.1281
X7.5274Y-4.0219
X7.5274Y-4.0573
X7.5274Y-4.0927
X7.5274Y-4.1281
X7.5629Y-4.0219
X7.5629Y-4.0573
X7.5629Y-4.0927
X7.5629Y-4.1281
X7.5983Y-4.0219
X7.5983Y-4.0573
X7.5983Y-4.0927
X7.5983Y-4.1281
X7.6337Y-4.0219
X7.6337Y-4.0573
X7.6337Y-4.0927
X7.6337Y-4.1281
X7.6692Y-4.0219
X7.6692Y-4.0573
X7.6692Y-4.0927
X7.6692Y-4.1281
T5
X3.8189Y-2.3819
X3.8189Y-2.5394
X3.9173Y-2.3819
X4.0157Y-2.3819
X4.1142Y-2.3819
X4.198Y-2.5503
X4.2126Y-2.3819
X4.25Y-3.215
X4.255Y-3.71
X4.3307Y-2.3819
X4.4291Y-2.3819
X4.455Y-3.24
X4.46Y-4.205
X4.47Y-3.74
X4.5276Y-2.3819
X4.575Y-2.695
X4.626Y-2.3819
X4.685Y-2.56
X4.69Y-3.105
X4.69Y-3.59
X4.69Y-4.55
X4.7Y-4.07
X4.7244Y-2.3819
X4.735Y-3.105
X4.735Y-3.59
X4.735Y-4.55
X4.74Y-4.07
X4.78Y-3.105
X4.78Y-4.55
X4.78Y-3.59
X4.79Y-4.07
X4.8228Y-2.3819
X4.92Y-2.685
X4.9213Y-2.3819
X4.9354Y-4.0
X4.9354Y-4.04
X4.9354Y-4.08
X4.9358Y-3.0743
X4.94Y-2.975
X4.94Y-3.03
X4.94Y-3.485
X4.94Y-3.53
X4.94Y-3.575
X4.9533Y-4.485
X4.9533Y-4.53
X4.9533Y-4.575
X4.99Y-4.44
X5.055Y-2.38
X5.055Y-4.35
X5.055Y-4.93
X5.065Y-2.685
X5.12Y-4.63
X5.16Y-3.25
X5.18Y-3.19
X5.205Y-3.25
X5.23Y-4.62
X5.2362Y-2.3819
X5.245Y-3.25
X5.3Y-2.76
X5.3543Y-2.3819
X5.42Y-2.6
X5.42Y-2.64
X5.4514Y-2.7088
X5.4724Y-2.3819
X5.5Y-4.445
X5.505Y-4.395
X5.51Y-4.505
X5.53Y-2.7
X5.545Y-4.615
X5.5709Y-2.3819
X5.5915Y-3.3051
X5.689Y-2.3819
X5.715Y-4.535
X5.72Y-4.4
X5.755Y-4.26
X5.7911Y-4.2562
X5.8Y-4.425
X5.8071Y-2.3819
X5.88Y-2.925
X5.9449Y-2.3819
X5.955Y-4.33
X5.985Y-4.185
X5.985Y-4.235
X5.995Y-4.33
X6.025Y-4.575
X6.03Y-4.1657
X6.0621Y-4.4773
X6.063Y-2.3819
X6.07Y-4.1657
X6.1108Y-3.5567
X6.1146Y-3.5048
X6.1498Y-3.5779
X6.1811Y-2.3819
X6.2127Y-3.2841
X6.22Y-2.865
X6.224Y-2.9104
X6.225Y-2.9104
X6.25Y-2.83
X6.275Y-4.12
X6.2992Y-2.3819
X6.32Y-2.83
X6.32Y-4.12
X6.32Y-4.305
X6.32Y-4.35
X6.36Y-4.365
X6.37Y-2.8641
X6.405Y-2.38
X6.41Y-4.365
X6.4351Y-3.1529
X6.4439Y-3.1169
X6.4478Y-3.0805
X6.4655Y-4.1339
X6.4665Y-4.065
X6.5Y-2.38
X6.59Y-2.425
X6.615Y-2.38
X6.655Y-2.79
X6.725Y-2.38
X6.76Y-3.065
X6.8Y-3.015
X6.8Y-4.75
X6.83Y-3.075
X6.835Y-2.38
X6.88Y-2.86
X6.88Y-3.075
X6.93Y-4.735
X6.965Y-2.38
X6.975Y-2.94
X7.0079Y-5.0394
X7.0177Y-4.8524
X7.0425Y-4.8864
X7.06Y-2.895
X7.0669Y-4.8524
X7.08Y-2.38
X7.1457Y-5.0394
X7.205Y-2.38
X7.21Y-3.92
X7.255Y-3.92
X7.2835Y-5.0394
X7.285Y-4.745
X7.3Y-3.92
X7.37Y-2.375
X7.3917Y-4.8425
X7.4016Y-5.0394
X7.4114Y-4.8819
X7.4508Y-4.8425
X7.55Y-2.375
X7.645Y-2.375
X7.645Y-5.045
X7.7362Y-5.0394
X7.74Y-3.96
X7.75Y-2.375
X7.805Y-3.93
X7.85Y-2.375
X7.85Y-3.93
X7.8543Y-3.1102
X7.8543Y-3.2283
X7.8543Y-3.3465
X7.8543Y-3.5827
X7.8543Y-3.7008
X7.8543Y-3.8189
X7.8543Y-4.8228
X7.8543Y-4.9213
X7.8543Y-5.0394
T7
X6.1Y-4.96
X6.1787Y-4.96
X6.2575Y-4.96
X6.3362Y-4.96
X6.415Y-4.96
X6.4937Y-4.96
X6.5724Y-4.96
X6.6512Y-4.96
X6.7299Y-4.96
X6.8087Y-4.96
T8
X5.1152Y-4.9276
X5.312Y-4.9276
T9
X4.676Y-4.99
X4.854Y-4.99
X5.7423Y-4.6051
X5.7974Y-4.6051
X5.8526Y-4.6051
X5.9077Y-4.6051
X7.245Y-2.5652
X7.245Y-2.6652
X7.245Y-2.7652
X7.245Y-2.8652
X7.345Y-2.6152
X7.345Y-2.7152
X7.345Y-2.8152
X7.345Y-2.9152
T10
X5.095Y-2.955
X5.095Y-4.295
X5.095Y-4.395
X5.095Y-4.495
X5.195Y-2.955
X5.295Y-2.955
X5.395Y-2.955
X5.49Y-4.66
X5.49Y-4.76
X5.49Y-4.86
X5.49Y-4.96
X5.495Y-2.955
X5.59Y-4.66
X5.59Y-4.76
X5.59Y-4.86
X5.59Y-4.96
T11
X3.55Y-3.1314
X3.5504Y-4.5673
X3.5504Y-4.8444
X3.5547Y-3.5802
X3.5587Y-4.0487
X3.65Y-3.1314
X3.6504Y-4.5673
X3.6504Y-4.8444
X3.6547Y-3.5802
X3.6587Y-4.0487
X3.75Y-3.1314
X3.7504Y-4.5673
X3.7504Y-4.8444
X3.7547Y-3.5802
X3.7587Y-4.0487
X3.85Y-3.1314
X3.8504Y-4.5673
X3.8504Y-4.8444
X3.8547Y-3.5802
X3.8587Y-4.0487
X3.87Y-2.455
X3.97Y-2.455
X4.07Y-2.455
X4.17Y-2.455
X4.38Y-2.455
X4.48Y-2.455
X4.58Y-2.455
X4.79Y-2.455
X4.89Y-2.455
X4.99Y-2.455
X5.26Y-2.455
X5.26Y-2.555
X5.26Y-2.655
X5.59Y-2.49
X5.59Y-2.59
X5.69Y-2.49
X5.69Y-2.59
X5.79Y-2.49
X5.79Y-2.59
X5.89Y-2.49
X5.89Y-2.59
X5.99Y-2.49
X5.99Y-2.59
X6.09Y-2.49
X6.09Y-2.59
X6.19Y-2.49
X6.19Y-2.59
X7.045Y-4.975
X7.145Y-4.975
X7.355Y-4.975
X7.455Y-4.975
T12
X7.7879Y-2.4792
X7.7879Y-2.5792
X7.7879Y-2.9008
X7.7879Y-3.0008
T13
X4.627Y-4.892
X4.903Y-4.892
T14
X7.0Y-4.41
X7.2Y-4.41
X7.525Y-4.41
X7.725Y-4.41
T15
X7.4749Y-2.4351
X7.4749Y-3.0449
T16
X6.5431Y-3.2633
X6.5431Y-3.6467
X6.5581Y-4.1283
X6.5581Y-4.5117
X6.6769Y-3.2633
X6.6769Y-3.6467
X6.6919Y-4.1283
X6.6919Y-4.5117
T17
X7.4094Y-3.3248
X7.4094Y-3.6988
T18
X3.9646Y-2.8065
X4.4371Y-4.8931
X7.078Y-3.2002
X7.7048Y-4.8931
T6
G00X5.0758Y-5.0201
M15
G01X5.0758Y-5.0476
M16
G05
G00X5.3514Y-5.0201
M15
G01X5.3514Y-5.0476
M16
G05
T10
G00X6.92Y-3.4608
M15
G01X6.92Y-3.4923
M16
G05
G00X6.92Y-3.6577
M15
G01X6.92Y-3.6892
M16
G05
G00X7.1753Y-3.4608
M15
G01X7.1753Y-3.4923
M16
G05
G00X7.1753Y-3.6577
M15
G01X7.1753Y-3.6892
M16
G05
T13
G00X5.7238Y-4.7161
M15
G01X5.7238Y-4.7515
M16
G05
G00X5.7238Y-4.8673
M15
G01X5.7238Y-4.9027
M16
G05
G00X5.9144Y-4.7161
M15
G01X5.9144Y-4.7515
M16
G05
G00X5.9144Y-4.8673
M15
G01X5.9144Y-4.9027
M16
G05
T0
M30
