%TF.GenerationSoftware,KiCad,Pcbnew,(6.0.2)*%
%TF.CreationDate,2022-04-18T10:54:01+08:00*%
%TF.ProjectId,BUDDY_v1.0.0,42554444-595f-4763-912e-302e302e6b69,v1.0.0*%
%TF.SameCoordinates,Original*%
%TF.FileFunction,Soldermask,Top*%
%TF.FilePolarity,Negative*%
%FSLAX46Y46*%
G04 Gerber Fmt 4.6, Leading zero omitted, Abs format (unit mm)*
G04 Created by KiCad (PCBNEW (6.0.2)) date 2022-04-18 10:54:01*
%MOMM*%
%LPD*%
G01*
G04 APERTURE LIST*
G04 Aperture macros list*
%AMRoundRect*
0 Rectangle with rounded corners*
0 $1 Rounding radius*
0 $2 $3 $4 $5 $6 $7 $8 $9 X,Y pos of 4 corners*
0 Add a 4 corners polygon primitive as box body*
4,1,4,$2,$3,$4,$5,$6,$7,$8,$9,$2,$3,0*
0 Add four circle primitives for the rounded corners*
1,1,$1+$1,$2,$3*
1,1,$1+$1,$4,$5*
1,1,$1+$1,$6,$7*
1,1,$1+$1,$8,$9*
0 Add four rect primitives between the rounded corners*
20,1,$1+$1,$2,$3,$4,$5,0*
20,1,$1+$1,$4,$5,$6,$7,0*
20,1,$1+$1,$6,$7,$8,$9,0*
20,1,$1+$1,$8,$9,$2,$3,0*%
G04 Aperture macros list end*
%ADD10R,1.700000X1.700000*%
%ADD11O,1.700000X1.700000*%
%ADD12R,0.700000X0.600000*%
%ADD13O,0.250000X0.700000*%
%ADD14O,0.700000X0.250000*%
%ADD15C,0.462500*%
%ADD16R,0.925000X0.925000*%
%ADD17RoundRect,0.243750X0.243750X0.456250X-0.243750X0.456250X-0.243750X-0.456250X0.243750X-0.456250X0*%
%ADD18R,1.727200X1.727200*%
%ADD19O,1.727200X1.727200*%
%ADD20RoundRect,0.147500X0.147500X0.172500X-0.147500X0.172500X-0.147500X-0.172500X0.147500X-0.172500X0*%
%ADD21RoundRect,0.147500X-0.147500X-0.172500X0.147500X-0.172500X0.147500X0.172500X-0.147500X0.172500X0*%
%ADD22RoundRect,0.147500X-0.172500X0.147500X-0.172500X-0.147500X0.172500X-0.147500X0.172500X0.147500X0*%
%ADD23RoundRect,0.218750X0.218750X0.256250X-0.218750X0.256250X-0.218750X-0.256250X0.218750X-0.256250X0*%
%ADD24R,1.450000X0.450000*%
%ADD25C,1.300000*%
%ADD26C,1.500000*%
%ADD27RoundRect,0.147500X0.172500X-0.147500X0.172500X0.147500X-0.172500X0.147500X-0.172500X-0.147500X0*%
%ADD28RoundRect,0.218750X0.256250X-0.218750X0.256250X0.218750X-0.256250X0.218750X-0.256250X-0.218750X0*%
%ADD29RoundRect,0.218750X-0.256250X0.218750X-0.256250X-0.218750X0.256250X-0.218750X0.256250X0.218750X0*%
%ADD30RoundRect,0.243750X0.456250X-0.243750X0.456250X0.243750X-0.456250X0.243750X-0.456250X-0.243750X0*%
%ADD31RoundRect,0.218750X-0.218750X-0.256250X0.218750X-0.256250X0.218750X0.256250X-0.218750X0.256250X0*%
%ADD32R,1.600000X3.500000*%
%ADD33R,0.797560X0.797560*%
%ADD34R,0.700000X1.000000*%
%ADD35R,2.159000X1.778000*%
%ADD36R,1.800000X2.500000*%
%ADD37C,2.650000*%
%ADD38R,0.400000X1.350000*%
%ADD39C,1.450000*%
%ADD40R,1.500000X1.900000*%
%ADD41O,1.200000X1.900000*%
%ADD42R,1.200000X1.900000*%
%ADD43R,1.727200X2.032000*%
%ADD44O,1.727200X2.032000*%
%ADD45C,2.540000*%
%ADD46C,5.500000*%
%ADD47RoundRect,0.249999X0.450001X0.650001X-0.450001X0.650001X-0.450001X-0.650001X0.450001X-0.650001X0*%
%ADD48R,2.100000X3.600000*%
%ADD49O,2.100000X3.600000*%
%ADD50R,0.800000X0.900000*%
%ADD51RoundRect,0.075000X-0.575000X0.350000X-0.575000X-0.350000X0.575000X-0.350000X0.575000X0.350000X0*%
%ADD52R,0.900000X0.900000*%
%ADD53RoundRect,0.075000X-1.650000X2.100000X-1.650000X-2.100000X1.650000X-2.100000X1.650000X2.100000X0*%
%ADD54RoundRect,0.075000X-0.775000X2.350000X-0.775000X-2.350000X0.775000X-2.350000X0.775000X2.350000X0*%
%ADD55R,0.900000X1.700000*%
%ADD56C,1.600000*%
%ADD57R,0.280000X1.500000*%
%ADD58R,1.500000X0.280000*%
%ADD59R,1.060000X0.650000*%
%ADD60R,1.400000X1.150000*%
%ADD61O,1.200000X2.000000*%
%ADD62O,1.800000X2.700000*%
%ADD63O,1.000000X5.000000*%
%ADD64C,3.400000*%
%ADD65R,2.032000X1.727200*%
%ADD66O,2.032000X1.727200*%
%ADD67O,3.000000X4.000000*%
%ADD68RoundRect,0.250000X0.375000X0.625000X-0.375000X0.625000X-0.375000X-0.625000X0.375000X-0.625000X0*%
%ADD69RoundRect,0.243750X-0.456250X0.243750X-0.456250X-0.243750X0.456250X-0.243750X0.456250X0.243750X0*%
%ADD70C,3.250000*%
%ADD71C,1.400000*%
%ADD72R,1.400000X1.400000*%
%ADD73C,1.720000*%
%ADD74C,2.600000*%
%ADD75R,0.900000X0.800000*%
%ADD76RoundRect,0.250000X-0.375000X-0.625000X0.375000X-0.625000X0.375000X0.625000X-0.375000X0.625000X0*%
%ADD77RoundRect,0.062500X-0.062500X0.325000X-0.062500X-0.325000X0.062500X-0.325000X0.062500X0.325000X0*%
%ADD78RoundRect,0.062500X-0.325000X0.062500X-0.325000X-0.062500X0.325000X-0.062500X0.325000X0.062500X0*%
%ADD79RoundRect,0.250000X-0.975000X0.975000X-0.975000X-0.975000X0.975000X-0.975000X0.975000X0.975000X0*%
%ADD80R,1.600000X1.300000*%
%ADD81R,0.850000X0.280000*%
%ADD82R,0.280000X0.850000*%
%ADD83R,2.050000X2.050000*%
%ADD84R,1.400000X1.200000*%
%ADD85R,2.500000X4.400000*%
%ADD86R,0.625000X0.250000*%
%ADD87R,0.700000X0.450000*%
%ADD88R,0.575000X0.450000*%
%ADD89RoundRect,0.243750X-0.243750X-0.456250X0.243750X-0.456250X0.243750X0.456250X-0.243750X0.456250X0*%
%ADD90R,2.000000X1.500000*%
%ADD91R,2.000000X3.800000*%
%ADD92R,0.650000X1.650000*%
%ADD93R,0.450000X0.700000*%
%ADD94R,1.000000X1.000000*%
%ADD95R,2.200000X1.050000*%
%ADD96RoundRect,0.135000X0.185000X-0.135000X0.185000X0.135000X-0.185000X0.135000X-0.185000X-0.135000X0*%
%ADD97RoundRect,0.135000X0.135000X0.185000X-0.135000X0.185000X-0.135000X-0.185000X0.135000X-0.185000X0*%
%ADD98RoundRect,0.225000X-0.225000X-0.250000X0.225000X-0.250000X0.225000X0.250000X-0.225000X0.250000X0*%
%ADD99R,0.270000X0.760000*%
%ADD100R,2.300000X1.500000*%
%ADD101R,3.500000X3.500000*%
%ADD102C,3.500000*%
%ADD103R,2.400000X5.100000*%
%ADD104RoundRect,0.250000X-0.250000X-0.475000X0.250000X-0.475000X0.250000X0.475000X-0.250000X0.475000X0*%
%ADD105RoundRect,0.135000X-0.185000X0.135000X-0.185000X-0.135000X0.185000X-0.135000X0.185000X0.135000X0*%
%ADD106RoundRect,0.140000X0.170000X-0.140000X0.170000X0.140000X-0.170000X0.140000X-0.170000X-0.140000X0*%
%ADD107RoundRect,0.250000X0.250000X0.475000X-0.250000X0.475000X-0.250000X-0.475000X0.250000X-0.475000X0*%
G04 APERTURE END LIST*
D10*
%TO.C,J21*%
X129413000Y-75057000D03*
D11*
X131953000Y-75057000D03*
X134493000Y-75057000D03*
X137033000Y-75057000D03*
X139573000Y-75057000D03*
%TD*%
D12*
%TO.C,D5*%
X126873000Y-65848000D03*
X126873000Y-67248000D03*
%TD*%
%TO.C,D6*%
X133223000Y-70801000D03*
X133223000Y-72201000D03*
%TD*%
%TO.C,D24*%
X125476000Y-127700000D03*
X125476000Y-126300000D03*
%TD*%
D13*
%TO.C,U6*%
X113394000Y-115724000D03*
X113894000Y-115724000D03*
X114394000Y-115724000D03*
X114894000Y-115724000D03*
X115394000Y-115724000D03*
X115894000Y-115724000D03*
X116394000Y-115724000D03*
D14*
X117344000Y-114774000D03*
X117344000Y-114274000D03*
X117344000Y-113774000D03*
X117344000Y-113274000D03*
X117344000Y-112774000D03*
X117344000Y-112274000D03*
X117344000Y-111774000D03*
D13*
X116394000Y-110824000D03*
X115894000Y-110824000D03*
X115394000Y-110824000D03*
X114894000Y-110824000D03*
X114394000Y-110824000D03*
X113894000Y-110824000D03*
X113394000Y-110824000D03*
D14*
X112444000Y-111774000D03*
X112444000Y-112274000D03*
X112444000Y-112774000D03*
X112444000Y-113274000D03*
X112444000Y-113774000D03*
X112444000Y-114274000D03*
X112444000Y-114774000D03*
D15*
X114431500Y-114661500D03*
D16*
X113506500Y-111886500D03*
D15*
X113506500Y-111886500D03*
D16*
X116281500Y-113736500D03*
X114431500Y-111886500D03*
X115356500Y-113736500D03*
D15*
X113506500Y-112811500D03*
D16*
X113506500Y-114661500D03*
X115356500Y-111886500D03*
D15*
X115356500Y-112811500D03*
D16*
X114431500Y-113736500D03*
D15*
X116281500Y-112811500D03*
X116281500Y-113736500D03*
D16*
X115356500Y-114661500D03*
D15*
X114431500Y-113736500D03*
D16*
X115356500Y-112811500D03*
D15*
X116281500Y-111886500D03*
D16*
X114431500Y-114661500D03*
D15*
X115356500Y-113736500D03*
D16*
X113506500Y-113736500D03*
D15*
X115356500Y-114661500D03*
D16*
X116281500Y-111886500D03*
D15*
X113506500Y-114661500D03*
X113506500Y-113736500D03*
D16*
X116281500Y-114661500D03*
X113506500Y-112811500D03*
X116281500Y-112811500D03*
D15*
X114431500Y-112811500D03*
D16*
X114431500Y-112811500D03*
D15*
X115356500Y-111886500D03*
X114431500Y-111886500D03*
X116281500Y-114661500D03*
%TD*%
D13*
%TO.C,U7*%
X113394000Y-103542000D03*
X113894000Y-103542000D03*
X114394000Y-103542000D03*
X114894000Y-103542000D03*
X115394000Y-103542000D03*
X115894000Y-103542000D03*
X116394000Y-103542000D03*
D14*
X117344000Y-102592000D03*
X117344000Y-102092000D03*
X117344000Y-101592000D03*
X117344000Y-101092000D03*
X117344000Y-100592000D03*
X117344000Y-100092000D03*
X117344000Y-99592000D03*
D13*
X116394000Y-98642000D03*
X115894000Y-98642000D03*
X115394000Y-98642000D03*
X114894000Y-98642000D03*
X114394000Y-98642000D03*
X113894000Y-98642000D03*
X113394000Y-98642000D03*
D14*
X112444000Y-99592000D03*
X112444000Y-100092000D03*
X112444000Y-100592000D03*
X112444000Y-101092000D03*
X112444000Y-101592000D03*
X112444000Y-102092000D03*
X112444000Y-102592000D03*
D15*
X115356500Y-101554500D03*
X116281500Y-101554500D03*
X115356500Y-100629500D03*
D16*
X114431500Y-100629500D03*
D15*
X115356500Y-99704500D03*
X114431500Y-101554500D03*
D16*
X116281500Y-102479500D03*
D15*
X116281500Y-100629500D03*
D16*
X114431500Y-99704500D03*
X116281500Y-100629500D03*
D15*
X116281500Y-102479500D03*
D16*
X115356500Y-99704500D03*
D15*
X115356500Y-102479500D03*
X116281500Y-99704500D03*
X114431500Y-99704500D03*
X113506500Y-99704500D03*
D16*
X115356500Y-102479500D03*
X116281500Y-99704500D03*
X114431500Y-101554500D03*
X113506500Y-100629500D03*
X113506500Y-101554500D03*
D15*
X113506500Y-102479500D03*
D16*
X116281500Y-101554500D03*
X113506500Y-99704500D03*
D15*
X113506500Y-101554500D03*
X113506500Y-100629500D03*
X114431500Y-100629500D03*
D16*
X115356500Y-101554500D03*
X115356500Y-100629500D03*
D15*
X114431500Y-102479500D03*
D16*
X114431500Y-102479500D03*
X113506500Y-102479500D03*
%TD*%
D13*
%TO.C,U8*%
X113394000Y-78904000D03*
X113894000Y-78904000D03*
X114394000Y-78904000D03*
X114894000Y-78904000D03*
X115394000Y-78904000D03*
X115894000Y-78904000D03*
X116394000Y-78904000D03*
D14*
X117344000Y-77954000D03*
X117344000Y-77454000D03*
X117344000Y-76954000D03*
X117344000Y-76454000D03*
X117344000Y-75954000D03*
X117344000Y-75454000D03*
X117344000Y-74954000D03*
D13*
X116394000Y-74004000D03*
X115894000Y-74004000D03*
X115394000Y-74004000D03*
X114894000Y-74004000D03*
X114394000Y-74004000D03*
X113894000Y-74004000D03*
X113394000Y-74004000D03*
D14*
X112444000Y-74954000D03*
X112444000Y-75454000D03*
X112444000Y-75954000D03*
X112444000Y-76454000D03*
X112444000Y-76954000D03*
X112444000Y-77454000D03*
X112444000Y-77954000D03*
D15*
X116281500Y-77841500D03*
X115356500Y-75066500D03*
X115356500Y-77841500D03*
X113506500Y-75991500D03*
X116281500Y-75066500D03*
D16*
X115356500Y-75066500D03*
D15*
X115356500Y-76916500D03*
X115356500Y-75991500D03*
D16*
X114431500Y-77841500D03*
X113506500Y-76916500D03*
D15*
X113506500Y-77841500D03*
D16*
X114431500Y-75991500D03*
D15*
X114431500Y-75991500D03*
X114431500Y-75066500D03*
D16*
X115356500Y-76916500D03*
X114431500Y-76916500D03*
D15*
X114431500Y-77841500D03*
D16*
X116281500Y-77841500D03*
X115356500Y-77841500D03*
X113506500Y-77841500D03*
X116281500Y-75991500D03*
D15*
X113506500Y-76916500D03*
D16*
X116281500Y-76916500D03*
X113506500Y-75991500D03*
D15*
X114431500Y-76916500D03*
D16*
X116281500Y-75066500D03*
X115356500Y-75991500D03*
D15*
X116281500Y-75991500D03*
D16*
X113506500Y-75066500D03*
D15*
X113506500Y-75066500D03*
D16*
X114431500Y-75066500D03*
D15*
X116281500Y-76916500D03*
%TD*%
D13*
%TO.C,U9*%
X113394000Y-91350000D03*
X113894000Y-91350000D03*
X114394000Y-91350000D03*
X114894000Y-91350000D03*
X115394000Y-91350000D03*
X115894000Y-91350000D03*
X116394000Y-91350000D03*
D14*
X117344000Y-90400000D03*
X117344000Y-89900000D03*
X117344000Y-89400000D03*
X117344000Y-88900000D03*
X117344000Y-88400000D03*
X117344000Y-87900000D03*
X117344000Y-87400000D03*
D13*
X116394000Y-86450000D03*
X115894000Y-86450000D03*
X115394000Y-86450000D03*
X114894000Y-86450000D03*
X114394000Y-86450000D03*
X113894000Y-86450000D03*
X113394000Y-86450000D03*
D14*
X112444000Y-87400000D03*
X112444000Y-87900000D03*
X112444000Y-88400000D03*
X112444000Y-88900000D03*
X112444000Y-89400000D03*
X112444000Y-89900000D03*
X112444000Y-90400000D03*
D16*
X114431500Y-89362500D03*
D15*
X115356500Y-87512500D03*
X113506500Y-90287500D03*
D16*
X113506500Y-88437500D03*
D15*
X116281500Y-89362500D03*
D16*
X115356500Y-89362500D03*
D15*
X113506500Y-88437500D03*
D16*
X116281500Y-88437500D03*
X115356500Y-90287500D03*
X113506500Y-90287500D03*
X116281500Y-87512500D03*
X113506500Y-87512500D03*
X115356500Y-88437500D03*
D15*
X115356500Y-90287500D03*
D16*
X115356500Y-87512500D03*
D15*
X116281500Y-87512500D03*
D16*
X116281500Y-90287500D03*
D15*
X114431500Y-87512500D03*
D16*
X114431500Y-87512500D03*
X113506500Y-89362500D03*
X116281500Y-89362500D03*
D15*
X114431500Y-89362500D03*
X115356500Y-88437500D03*
X113506500Y-89362500D03*
D16*
X114431500Y-90287500D03*
D15*
X114431500Y-90287500D03*
X113506500Y-87512500D03*
X114431500Y-88437500D03*
D16*
X114431500Y-88437500D03*
D15*
X116281500Y-88437500D03*
X115356500Y-89362500D03*
X116281500Y-90287500D03*
%TD*%
D17*
%TO.C,C37*%
X142415500Y-116035568D03*
X140540500Y-116035568D03*
%TD*%
D18*
%TO.C,J8*%
X141986000Y-65786000D03*
D19*
X141986000Y-63246000D03*
X144526000Y-65786000D03*
X144526000Y-63246000D03*
X147066000Y-65786000D03*
X147066000Y-63246000D03*
X149606000Y-65786000D03*
X149606000Y-63246000D03*
X152146000Y-65786000D03*
X152146000Y-63246000D03*
X154686000Y-65786000D03*
X154686000Y-63246000D03*
X157226000Y-65786000D03*
X157226000Y-63246000D03*
%TD*%
D10*
%TO.C,J1*%
X129413000Y-114173000D03*
D11*
X129413000Y-111633000D03*
X129413000Y-109093000D03*
%TD*%
D20*
%TO.C,R77*%
X199494000Y-117475000D03*
X198524000Y-117475000D03*
%TD*%
%TO.C,R78*%
X170769000Y-120777000D03*
X169799000Y-120777000D03*
%TD*%
%TO.C,R82*%
X168864000Y-120777000D03*
X167894000Y-120777000D03*
%TD*%
D21*
%TO.C,TH1*%
X198524000Y-116459000D03*
X199494000Y-116459000D03*
%TD*%
D22*
%TO.C,C114*%
X144780000Y-101773000D03*
X144780000Y-102743000D03*
%TD*%
D23*
%TO.C,C8*%
X169062500Y-119507000D03*
X167487500Y-119507000D03*
%TD*%
D22*
%TO.C,C52*%
X165608000Y-119888000D03*
X165608000Y-120858000D03*
%TD*%
D20*
%TO.C,R29*%
X157965000Y-117983000D03*
X156995000Y-117983000D03*
%TD*%
%TO.C,R28*%
X157965000Y-116967000D03*
X156995000Y-116967000D03*
%TD*%
D24*
%TO.C,U11*%
X158213000Y-119421000D03*
X158213000Y-120071000D03*
X158213000Y-120721000D03*
X158213000Y-121371000D03*
X164113000Y-121371000D03*
X164113000Y-120721000D03*
X164113000Y-120071000D03*
X164113000Y-119421000D03*
%TD*%
D25*
%TO.C,J23*%
X174940000Y-124084000D03*
D26*
X154940000Y-125984000D03*
X156940000Y-125984000D03*
X158940000Y-125984000D03*
X160940000Y-125984000D03*
X162940000Y-125984000D03*
X164940000Y-125984000D03*
X166940000Y-125984000D03*
X168940000Y-125984000D03*
X170940000Y-125984000D03*
X172940000Y-125984000D03*
%TD*%
D10*
%TO.C,J10*%
X139446000Y-118364000D03*
D11*
X141986000Y-118364000D03*
X139446000Y-120904000D03*
X141986000Y-120904000D03*
X139446000Y-123444000D03*
X141986000Y-123444000D03*
X139446000Y-125984000D03*
X141986000Y-125984000D03*
%TD*%
D20*
%TO.C,R92*%
X141582000Y-110617000D03*
X140612000Y-110617000D03*
%TD*%
D27*
%TO.C,C1*%
X118999000Y-67033000D03*
X118999000Y-66063000D03*
%TD*%
D22*
%TO.C,C2*%
X130302000Y-63650000D03*
X130302000Y-64620000D03*
%TD*%
D27*
%TO.C,C3*%
X178181000Y-121262000D03*
X178181000Y-120292000D03*
%TD*%
%TO.C,C4*%
X188214000Y-121262000D03*
X188214000Y-120292000D03*
%TD*%
D22*
%TO.C,C9*%
X104394000Y-65705000D03*
X104394000Y-66675000D03*
%TD*%
D27*
%TO.C,C10*%
X107823000Y-66652000D03*
X107823000Y-65682000D03*
%TD*%
D22*
%TO.C,C11*%
X138684000Y-99845000D03*
X138684000Y-100815000D03*
%TD*%
D27*
%TO.C,C12*%
X112141000Y-66779000D03*
X112141000Y-65809000D03*
%TD*%
D28*
%TO.C,C14*%
X133858000Y-103911500D03*
X133858000Y-102336500D03*
%TD*%
D29*
%TO.C,C15*%
X119720000Y-112486500D03*
X119720000Y-114061500D03*
%TD*%
D20*
%TO.C,C16*%
X117617100Y-109738160D03*
X116647100Y-109738160D03*
%TD*%
D30*
%TO.C,C21*%
X153035000Y-114729500D03*
X153035000Y-112854500D03*
%TD*%
D31*
%TO.C,C23*%
X171712500Y-100360000D03*
X173287500Y-100360000D03*
%TD*%
D29*
%TO.C,C24*%
X119720000Y-100304500D03*
X119720000Y-101879500D03*
%TD*%
D31*
%TO.C,C25*%
X171145000Y-119507000D03*
X172720000Y-119507000D03*
%TD*%
D22*
%TO.C,C27*%
X136779000Y-99695000D03*
X136779000Y-100665000D03*
%TD*%
D23*
%TO.C,C28*%
X158744917Y-85484692D03*
X157169917Y-85484692D03*
%TD*%
D27*
%TO.C,C30*%
X130048000Y-96751000D03*
X130048000Y-95781000D03*
%TD*%
D20*
%TO.C,C32*%
X117617100Y-97556160D03*
X116647100Y-97556160D03*
%TD*%
D29*
%TO.C,C34*%
X119720000Y-75666500D03*
X119720000Y-77241500D03*
%TD*%
%TO.C,C36*%
X119720000Y-88112500D03*
X119720000Y-89687500D03*
%TD*%
D20*
%TO.C,C38*%
X117617100Y-72918160D03*
X116647100Y-72918160D03*
%TD*%
D23*
%TO.C,C39*%
X142421712Y-114384568D03*
X140846712Y-114384568D03*
%TD*%
D20*
%TO.C,C40*%
X117617100Y-85364160D03*
X116647100Y-85364160D03*
%TD*%
D23*
%TO.C,C42*%
X118582540Y-117411500D03*
X117007540Y-117411500D03*
%TD*%
D21*
%TO.C,C43*%
X114704000Y-117856000D03*
X115674000Y-117856000D03*
%TD*%
D23*
%TO.C,C44*%
X118582540Y-105229500D03*
X117007540Y-105229500D03*
%TD*%
D21*
%TO.C,C45*%
X114704000Y-105674000D03*
X115674000Y-105674000D03*
%TD*%
D23*
%TO.C,C46*%
X109603640Y-117066060D03*
X108028640Y-117066060D03*
%TD*%
%TO.C,C47*%
X109603640Y-104884060D03*
X108028640Y-104884060D03*
%TD*%
%TO.C,C50*%
X109527440Y-109466380D03*
X107952440Y-109466380D03*
%TD*%
%TO.C,C53*%
X109527440Y-97284380D03*
X107952440Y-97284380D03*
%TD*%
D28*
%TO.C,C54*%
X111122460Y-111041280D03*
X111122460Y-109466280D03*
%TD*%
%TO.C,C55*%
X111122460Y-98859280D03*
X111122460Y-97284280D03*
%TD*%
D29*
%TO.C,C58*%
X111180880Y-115541960D03*
X111180880Y-117116960D03*
%TD*%
%TO.C,C59*%
X111180880Y-103359960D03*
X111180880Y-104934960D03*
%TD*%
D32*
%TO.C,C61*%
X124079000Y-102456000D03*
X124079000Y-107856000D03*
%TD*%
D31*
%TO.C,C64*%
X102463500Y-127508000D03*
X104038500Y-127508000D03*
%TD*%
%TO.C,C65*%
X102463500Y-124333000D03*
X104038500Y-124333000D03*
%TD*%
%TO.C,C66*%
X102463500Y-121285000D03*
X104038500Y-121285000D03*
%TD*%
%TO.C,C67*%
X102463500Y-118110000D03*
X104038500Y-118110000D03*
%TD*%
%TO.C,C68*%
X102463500Y-113919000D03*
X104038500Y-113919000D03*
%TD*%
%TO.C,C69*%
X102463500Y-110617000D03*
X104038500Y-110617000D03*
%TD*%
%TO.C,C70*%
X102463500Y-107315000D03*
X104038500Y-107315000D03*
%TD*%
%TO.C,C71*%
X102463500Y-104013000D03*
X104038500Y-104013000D03*
%TD*%
D23*
%TO.C,C72*%
X118582540Y-80591500D03*
X117007540Y-80591500D03*
%TD*%
D21*
%TO.C,C73*%
X114704000Y-81036000D03*
X115674000Y-81036000D03*
%TD*%
D23*
%TO.C,C74*%
X118582540Y-93037500D03*
X117007540Y-93037500D03*
%TD*%
D21*
%TO.C,C75*%
X114704000Y-93482000D03*
X115674000Y-93482000D03*
%TD*%
D23*
%TO.C,C76*%
X109603640Y-80246060D03*
X108028640Y-80246060D03*
%TD*%
%TO.C,C77*%
X109603640Y-92692060D03*
X108028640Y-92692060D03*
%TD*%
%TO.C,C80*%
X109527440Y-72646380D03*
X107952440Y-72646380D03*
%TD*%
%TO.C,C83*%
X109527440Y-85092380D03*
X107952440Y-85092380D03*
%TD*%
D28*
%TO.C,C84*%
X111122460Y-74221280D03*
X111122460Y-72646280D03*
%TD*%
%TO.C,C85*%
X111122460Y-86667280D03*
X111122460Y-85092280D03*
%TD*%
D20*
%TO.C,C87*%
X128628000Y-124333000D03*
X127658000Y-124333000D03*
%TD*%
D29*
%TO.C,C88*%
X111180880Y-78721960D03*
X111180880Y-80296960D03*
%TD*%
%TO.C,C89*%
X111180880Y-91167960D03*
X111180880Y-92742960D03*
%TD*%
D32*
%TO.C,C90*%
X124079000Y-77945000D03*
X124079000Y-83345000D03*
%TD*%
%TO.C,C91*%
X124079000Y-90264000D03*
X124079000Y-95664000D03*
%TD*%
D31*
%TO.C,C94*%
X102336500Y-87376000D03*
X103911500Y-87376000D03*
%TD*%
%TO.C,C95*%
X102336500Y-84074000D03*
X103911500Y-84074000D03*
%TD*%
%TO.C,C96*%
X102336500Y-80772000D03*
X103911500Y-80772000D03*
%TD*%
%TO.C,C97*%
X102336500Y-77470000D03*
X103911500Y-77470000D03*
%TD*%
%TO.C,C98*%
X102463500Y-100711000D03*
X104038500Y-100711000D03*
%TD*%
%TO.C,C99*%
X102463500Y-97409000D03*
X104038500Y-97409000D03*
%TD*%
%TO.C,C100*%
X102463500Y-94107000D03*
X104038500Y-94107000D03*
%TD*%
%TO.C,C101*%
X102463500Y-90805000D03*
X104038500Y-90805000D03*
%TD*%
D22*
%TO.C,C104*%
X142113000Y-102385000D03*
X142113000Y-103355000D03*
%TD*%
D27*
%TO.C,C105*%
X137287000Y-103482000D03*
X137287000Y-102512000D03*
%TD*%
D29*
%TO.C,C106*%
X150241000Y-85572500D03*
X150241000Y-87147500D03*
%TD*%
D28*
%TO.C,C107*%
X134493000Y-80289500D03*
X134493000Y-78714500D03*
%TD*%
D27*
%TO.C,C108*%
X121158000Y-124691000D03*
X121158000Y-123721000D03*
%TD*%
D22*
%TO.C,C109*%
X141859000Y-99972000D03*
X141859000Y-100942000D03*
%TD*%
D20*
%TO.C,C110*%
X132565000Y-81788000D03*
X131595000Y-81788000D03*
%TD*%
D27*
%TO.C,C111*%
X149733000Y-84178000D03*
X149733000Y-83208000D03*
%TD*%
D22*
%TO.C,C112*%
X149777000Y-95305000D03*
X149777000Y-96275000D03*
%TD*%
%TO.C,C113*%
X147320000Y-100757000D03*
X147320000Y-101727000D03*
%TD*%
%TO.C,C115*%
X150495000Y-113053000D03*
X150495000Y-114023000D03*
%TD*%
D29*
%TO.C,C116*%
X146050000Y-100939500D03*
X146050000Y-102514500D03*
%TD*%
%TO.C,C117*%
X143383000Y-101066500D03*
X143383000Y-102641500D03*
%TD*%
D28*
%TO.C,C118*%
X147955000Y-83236000D03*
X147955000Y-81661000D03*
%TD*%
D33*
%TO.C,D3*%
X121666000Y-67297300D03*
X121666000Y-65798700D03*
%TD*%
%TO.C,D4*%
X129641600Y-68834000D03*
X128143000Y-68834000D03*
%TD*%
%TO.C,D9*%
X137708701Y-106566001D03*
X139207301Y-106566001D03*
%TD*%
D34*
%TO.C,D10*%
X133080000Y-122924000D03*
D12*
X133080000Y-121224000D03*
X131080000Y-121224000D03*
X131080000Y-123124000D03*
%TD*%
D35*
%TO.C,D12*%
X184300000Y-105332000D03*
X184300000Y-101268000D03*
%TD*%
D33*
%TO.C,D13*%
X173101000Y-110121700D03*
X173101000Y-111620300D03*
%TD*%
D35*
%TO.C,D14*%
X198247000Y-105410000D03*
X198247000Y-101346000D03*
%TD*%
D33*
%TO.C,D15*%
X193642169Y-119440052D03*
X195140769Y-119440052D03*
%TD*%
%TO.C,D17*%
X144018000Y-112661700D03*
X144018000Y-114160300D03*
%TD*%
D36*
%TO.C,D18*%
X173355000Y-80804000D03*
X173355000Y-84804000D03*
%TD*%
D34*
%TO.C,D22*%
X147082000Y-113423000D03*
D12*
X147082000Y-115123000D03*
X149082000Y-115123000D03*
X149082000Y-113223000D03*
%TD*%
D37*
%TO.C,F3*%
X169594000Y-82887000D03*
X166194000Y-82887000D03*
X169594000Y-92627000D03*
X166194000Y-92627000D03*
%TD*%
D38*
%TO.C,J2*%
X131126000Y-125160000D03*
X131776000Y-125160000D03*
X132426000Y-125160000D03*
X133076000Y-125160000D03*
X133726000Y-125160000D03*
D39*
X134926000Y-125160000D03*
D40*
X133426000Y-127860000D03*
D41*
X135926000Y-127860000D03*
X128926000Y-127860000D03*
D42*
X135326000Y-127860000D03*
X129526000Y-127860000D03*
D40*
X131426000Y-127860000D03*
D39*
X129926000Y-125160000D03*
%TD*%
D43*
%TO.C,J7*%
X98298000Y-62357000D03*
D44*
X100838000Y-62357000D03*
X103378000Y-62357000D03*
X105918000Y-62357000D03*
%TD*%
D43*
%TO.C,J9*%
X111252000Y-62357000D03*
D44*
X113792000Y-62357000D03*
X116332000Y-62357000D03*
%TD*%
D45*
%TO.C,J12*%
X98702000Y-66285000D03*
%TD*%
%TO.C,J13*%
X107702000Y-126000000D03*
%TD*%
%TO.C,J15*%
X192000000Y-127285000D03*
%TD*%
D46*
%TO.C,J17*%
X100702000Y-71285000D03*
%TD*%
%TO.C,J18*%
X112702000Y-124285000D03*
%TD*%
%TO.C,J19*%
X195702000Y-124285000D03*
%TD*%
D28*
%TO.C,L1*%
X117729000Y-67310000D03*
X117729000Y-65735000D03*
%TD*%
%TO.C,L2*%
X130302000Y-62382500D03*
X130302000Y-60807500D03*
%TD*%
%TO.C,L3*%
X124079000Y-67335500D03*
X124079000Y-65760500D03*
%TD*%
%TO.C,L4*%
X135763000Y-72288500D03*
X135763000Y-70713500D03*
%TD*%
D29*
%TO.C,L5*%
X176784000Y-119507000D03*
X176784000Y-121082000D03*
%TD*%
%TO.C,L6*%
X186817000Y-119481500D03*
X186817000Y-121056500D03*
%TD*%
%TO.C,L7*%
X129413000Y-121640500D03*
X129413000Y-123215500D03*
%TD*%
D31*
%TO.C,L8*%
X135229500Y-119507000D03*
X136804500Y-119507000D03*
%TD*%
D29*
%TO.C,L9*%
X127254000Y-126466500D03*
X127254000Y-128041500D03*
%TD*%
D47*
%TO.C,L12*%
X170896257Y-97635544D03*
X166896257Y-97635544D03*
%TD*%
D28*
%TO.C,L14*%
X109220000Y-67462500D03*
X109220000Y-65887500D03*
%TD*%
%TO.C,L15*%
X110744000Y-67462500D03*
X110744000Y-65887500D03*
%TD*%
D29*
%TO.C,L16*%
X140462000Y-69697500D03*
X140462000Y-71272500D03*
%TD*%
D28*
%TO.C,L23*%
X113538000Y-67335500D03*
X113538000Y-65760500D03*
%TD*%
%TO.C,L25*%
X116205000Y-67335500D03*
X116205000Y-65760500D03*
%TD*%
%TO.C,L27*%
X151638000Y-114706500D03*
X151638000Y-113131500D03*
%TD*%
D23*
%TO.C,L31*%
X104061360Y-122811540D03*
X102486360Y-122811540D03*
%TD*%
%TO.C,L32*%
X104035960Y-119694960D03*
X102460960Y-119694960D03*
%TD*%
%TO.C,L33*%
X104035960Y-116507260D03*
X102460960Y-116507260D03*
%TD*%
%TO.C,L34*%
X104038500Y-108966000D03*
X102463500Y-108966000D03*
%TD*%
%TO.C,L35*%
X104038500Y-105664000D03*
X102463500Y-105664000D03*
%TD*%
%TO.C,L36*%
X104038500Y-102362000D03*
X102463500Y-102362000D03*
%TD*%
%TO.C,L37*%
X104035960Y-125897640D03*
X102460960Y-125897640D03*
%TD*%
%TO.C,L38*%
X104038500Y-112268000D03*
X102463500Y-112268000D03*
%TD*%
%TO.C,L39*%
X103911500Y-82423000D03*
X102336500Y-82423000D03*
%TD*%
%TO.C,L40*%
X103911500Y-79121000D03*
X102336500Y-79121000D03*
%TD*%
%TO.C,L41*%
X103911500Y-75819000D03*
X102336500Y-75819000D03*
%TD*%
%TO.C,L42*%
X104038500Y-95758000D03*
X102463500Y-95758000D03*
%TD*%
%TO.C,L43*%
X104038500Y-92456000D03*
X102463500Y-92456000D03*
%TD*%
%TO.C,L44*%
X104038500Y-89154000D03*
X102463500Y-89154000D03*
%TD*%
%TO.C,L45*%
X103911500Y-85725000D03*
X102336500Y-85725000D03*
%TD*%
%TO.C,L46*%
X104038500Y-99060000D03*
X102463500Y-99060000D03*
%TD*%
D28*
%TO.C,L47*%
X148590000Y-102260500D03*
X148590000Y-100685500D03*
%TD*%
D29*
%TO.C,L48*%
X152200000Y-116012500D03*
X152200000Y-117587500D03*
%TD*%
D43*
%TO.C,P1*%
X121666000Y-62357000D03*
D44*
X124206000Y-62357000D03*
X126746000Y-62357000D03*
%TD*%
D43*
%TO.C,P3*%
X181483000Y-126365000D03*
D44*
X178943000Y-126365000D03*
%TD*%
D43*
%TO.C,P4*%
X189357000Y-126365000D03*
D44*
X186817000Y-126365000D03*
%TD*%
D48*
%TO.C,P5*%
X177800000Y-112014000D03*
D49*
X182880000Y-112014000D03*
%TD*%
D48*
%TO.C,P6*%
X191135000Y-112014000D03*
D49*
X196215000Y-112014000D03*
%TD*%
D43*
%TO.C,P8*%
X90390000Y-102838000D03*
D44*
X92930000Y-102838000D03*
X95470000Y-102838000D03*
X98010000Y-102838000D03*
%TD*%
D43*
%TO.C,P9*%
X90170000Y-79538000D03*
D44*
X92710000Y-79538000D03*
X95250000Y-79538000D03*
X97790000Y-79538000D03*
%TD*%
D43*
%TO.C,P10*%
X90290000Y-90938000D03*
D44*
X92830000Y-90938000D03*
X95370000Y-90938000D03*
X97910000Y-90938000D03*
%TD*%
D50*
%TO.C,Q1*%
X121732000Y-71231000D03*
X123632000Y-71231000D03*
X122682000Y-69231000D03*
%TD*%
%TO.C,Q2*%
X129733000Y-72755000D03*
X131633000Y-72755000D03*
X130683000Y-70755000D03*
%TD*%
D51*
%TO.C,Q3*%
X175102000Y-105410000D03*
X175102000Y-101600000D03*
X175102000Y-104140000D03*
X175102000Y-102870000D03*
D52*
X180827000Y-103055000D03*
X180827000Y-102155000D03*
X177227000Y-103955000D03*
X179927000Y-104855000D03*
X178127000Y-102155000D03*
X177227000Y-102155000D03*
X179027000Y-103955000D03*
X177227000Y-104855000D03*
X180827000Y-103955000D03*
X178127000Y-104855000D03*
X179027000Y-103055000D03*
X179927000Y-103955000D03*
X178127000Y-103055000D03*
X179927000Y-102155000D03*
X180827000Y-104855000D03*
X179027000Y-104855000D03*
D53*
X178377000Y-103505000D03*
D52*
X178127000Y-103955000D03*
D54*
X180577000Y-103505000D03*
D52*
X179027000Y-102155000D03*
X179927000Y-103055000D03*
X177227000Y-103055000D03*
%TD*%
D51*
%TO.C,Q4*%
X189072000Y-105410000D03*
X189072000Y-101600000D03*
X189072000Y-102870000D03*
X189072000Y-104140000D03*
D52*
X194797000Y-103955000D03*
D53*
X192347000Y-103505000D03*
D52*
X193897000Y-103055000D03*
X191197000Y-103055000D03*
X194797000Y-102155000D03*
X193897000Y-104855000D03*
X192097000Y-104855000D03*
X192997000Y-102155000D03*
D54*
X194547000Y-103505000D03*
D52*
X191197000Y-103955000D03*
X192097000Y-103055000D03*
X192997000Y-103055000D03*
X194797000Y-103055000D03*
X192097000Y-103955000D03*
X191197000Y-104855000D03*
X193897000Y-103955000D03*
X192997000Y-104855000D03*
X191197000Y-102155000D03*
X192097000Y-102155000D03*
X192997000Y-103955000D03*
X194797000Y-104855000D03*
X193897000Y-102155000D03*
%TD*%
D22*
%TO.C,R1*%
X120373000Y-69596000D03*
X120373000Y-70566000D03*
%TD*%
%TO.C,R2*%
X128397000Y-71651000D03*
X128397000Y-72621000D03*
%TD*%
%TO.C,R3*%
X119253000Y-69619000D03*
X119253000Y-70589000D03*
%TD*%
D27*
%TO.C,R4*%
X127254000Y-72621000D03*
X127254000Y-71651000D03*
%TD*%
D28*
%TO.C,R5*%
X120269000Y-67335500D03*
X120269000Y-65760500D03*
%TD*%
D29*
%TO.C,R6*%
X130302000Y-65887500D03*
X130302000Y-67462500D03*
%TD*%
D27*
%TO.C,R7*%
X128651000Y-66652000D03*
X128651000Y-65682000D03*
%TD*%
D20*
%TO.C,R8*%
X134343000Y-73025000D03*
X133373000Y-73025000D03*
%TD*%
D22*
%TO.C,R9*%
X125349000Y-66063000D03*
X125349000Y-67033000D03*
%TD*%
D27*
%TO.C,R10*%
X134493000Y-72113000D03*
X134493000Y-71143000D03*
%TD*%
D22*
%TO.C,R11*%
X179324000Y-120292000D03*
X179324000Y-121262000D03*
%TD*%
D27*
%TO.C,R12*%
X180467000Y-121262000D03*
X180467000Y-120292000D03*
%TD*%
D22*
%TO.C,R13*%
X181610000Y-120292000D03*
X181610000Y-121262000D03*
%TD*%
%TO.C,R14*%
X189357000Y-120292000D03*
X189357000Y-121262000D03*
%TD*%
D27*
%TO.C,R15*%
X190500000Y-121262000D03*
X190500000Y-120292000D03*
%TD*%
%TO.C,R16*%
X191770000Y-121262000D03*
X191770000Y-120292000D03*
%TD*%
D22*
%TO.C,R18*%
X114935000Y-65936000D03*
X114935000Y-66906000D03*
%TD*%
D29*
%TO.C,R19*%
X129667000Y-118592500D03*
X129667000Y-120167500D03*
%TD*%
D28*
%TO.C,R20*%
X128270000Y-120167500D03*
X128270000Y-118592500D03*
%TD*%
D22*
%TO.C,R22*%
X146558000Y-69746000D03*
X146558000Y-70716000D03*
%TD*%
%TO.C,R23*%
X149860000Y-69746000D03*
X149860000Y-70716000D03*
%TD*%
D23*
%TO.C,C26*%
X166696166Y-100110000D03*
X165121166Y-100110000D03*
%TD*%
D22*
%TO.C,R41*%
X153162000Y-69746000D03*
X153162000Y-70716000D03*
%TD*%
D27*
%TO.C,R42*%
X143256000Y-70693000D03*
X143256000Y-69723000D03*
%TD*%
%TO.C,R43*%
X172974000Y-103355000D03*
X172974000Y-102385000D03*
%TD*%
D22*
%TO.C,R44*%
X172974000Y-104544000D03*
X172974000Y-105514000D03*
%TD*%
D29*
%TO.C,R45*%
X173101000Y-113131500D03*
X173101000Y-114706500D03*
%TD*%
D27*
%TO.C,R46*%
X186944000Y-103101000D03*
X186944000Y-102131000D03*
%TD*%
D22*
%TO.C,R47*%
X186944000Y-104417000D03*
X186944000Y-105387000D03*
%TD*%
D31*
%TO.C,R48*%
X196570500Y-119440052D03*
X198145500Y-119440052D03*
%TD*%
D27*
%TO.C,R54*%
X106680000Y-66652000D03*
X106680000Y-65682000D03*
%TD*%
D22*
%TO.C,R55*%
X103251000Y-65705000D03*
X103251000Y-66675000D03*
%TD*%
%TO.C,R56*%
X102108000Y-65682000D03*
X102108000Y-66652000D03*
%TD*%
%TO.C,R57*%
X105537000Y-65682000D03*
X105537000Y-66652000D03*
%TD*%
D27*
%TO.C,R58*%
X100965000Y-66652000D03*
X100965000Y-65682000D03*
%TD*%
D22*
%TO.C,R63*%
X155575000Y-69746000D03*
X155575000Y-70716000D03*
%TD*%
D27*
%TO.C,R64*%
X129921000Y-90528000D03*
X129921000Y-89558000D03*
%TD*%
D55*
%TO.C,R65*%
X106701000Y-115062000D03*
X109601000Y-115062000D03*
%TD*%
%TO.C,R66*%
X106701000Y-102880000D03*
X109601000Y-102880000D03*
%TD*%
%TO.C,R67*%
X106627000Y-111506000D03*
X109527000Y-111506000D03*
%TD*%
%TO.C,R68*%
X106627000Y-99324000D03*
X109527000Y-99324000D03*
%TD*%
D20*
%TO.C,R70*%
X164315000Y-66675000D03*
X163345000Y-66675000D03*
%TD*%
D55*
%TO.C,R73*%
X106701000Y-78242000D03*
X109601000Y-78242000D03*
%TD*%
%TO.C,R74*%
X106701000Y-90688000D03*
X109601000Y-90688000D03*
%TD*%
%TO.C,R75*%
X106627000Y-74686000D03*
X109527000Y-74686000D03*
%TD*%
%TO.C,R76*%
X106627000Y-87132000D03*
X109527000Y-87132000D03*
%TD*%
D27*
%TO.C,R79*%
X122428000Y-124691000D03*
X122428000Y-123721000D03*
%TD*%
D22*
%TO.C,R80*%
X149987000Y-89304000D03*
X149987000Y-90274000D03*
%TD*%
D27*
%TO.C,R81*%
X119761000Y-124691000D03*
X119761000Y-123721000D03*
%TD*%
%TO.C,R86*%
X144780000Y-100815000D03*
X144780000Y-99845000D03*
%TD*%
D21*
%TO.C,R87*%
X140612000Y-111633000D03*
X141582000Y-111633000D03*
%TD*%
D31*
%TO.C,R88*%
X140944500Y-112903000D03*
X142519500Y-112903000D03*
%TD*%
D27*
%TO.C,R89*%
X144907000Y-70693000D03*
X144907000Y-69723000D03*
%TD*%
%TO.C,R90*%
X148209000Y-70716000D03*
X148209000Y-69746000D03*
%TD*%
%TO.C,R91*%
X151511000Y-70716000D03*
X151511000Y-69746000D03*
%TD*%
%TO.C,R93*%
X154432000Y-70716000D03*
X154432000Y-69746000D03*
%TD*%
D25*
%TO.C,SW1*%
X123291600Y-126746000D03*
X118770400Y-126746000D03*
D56*
X124536200Y-124256800D03*
X117525800Y-124256800D03*
%TD*%
D57*
%TO.C,U10*%
X133842001Y-98066001D03*
X134342001Y-98066001D03*
X134842001Y-98066001D03*
X135342001Y-98066001D03*
X135842001Y-98066001D03*
X136342001Y-98066001D03*
X136842001Y-98066001D03*
X137342001Y-98066001D03*
X137842001Y-98066001D03*
X138342001Y-98066001D03*
X138842001Y-98066001D03*
X139342001Y-98066001D03*
X139842001Y-98066001D03*
X140342001Y-98066001D03*
X140842001Y-98066001D03*
X141342001Y-98066001D03*
X141842001Y-98066001D03*
X142342001Y-98066001D03*
X142842001Y-98066001D03*
X143342001Y-98066001D03*
X143842001Y-98066001D03*
X144342001Y-98066001D03*
X144842001Y-98066001D03*
X145342001Y-98066001D03*
X145842001Y-98066001D03*
D58*
X147742001Y-96166001D03*
X147742001Y-95666001D03*
X147742001Y-95166001D03*
X147742001Y-94666001D03*
X147742001Y-94166001D03*
X147742001Y-93666001D03*
X147742001Y-93166001D03*
X147742001Y-92666001D03*
X147742001Y-92166001D03*
X147742001Y-91666001D03*
X147742001Y-91166001D03*
X147742001Y-90666001D03*
X147742001Y-90166001D03*
X147742001Y-89666001D03*
X147742001Y-89166001D03*
X147742001Y-88666001D03*
X147742001Y-88166001D03*
X147742001Y-87666001D03*
X147742001Y-87166001D03*
X147742001Y-86666001D03*
X147742001Y-86166001D03*
X147742001Y-85666001D03*
X147742001Y-85166001D03*
X147742001Y-84666001D03*
X147742001Y-84166001D03*
D57*
X145842001Y-82266001D03*
X145342001Y-82266001D03*
X144842001Y-82266001D03*
X144342001Y-82266001D03*
X143842001Y-82266001D03*
X143342001Y-82266001D03*
X142842001Y-82266001D03*
X142342001Y-82266001D03*
X141842001Y-82266001D03*
X141342001Y-82266001D03*
X140842001Y-82266001D03*
X140342001Y-82266001D03*
X139842001Y-82266001D03*
X139342001Y-82266001D03*
X138842001Y-82266001D03*
X138342001Y-82266001D03*
X137842001Y-82266001D03*
X137342001Y-82266001D03*
X136842001Y-82266001D03*
X136342001Y-82266001D03*
X135842001Y-82266001D03*
X135342001Y-82266001D03*
X134842001Y-82266001D03*
X134342001Y-82266001D03*
X133842001Y-82266001D03*
D58*
X131942001Y-84166001D03*
X131942001Y-84666001D03*
X131942001Y-85166001D03*
X131942001Y-85666001D03*
X131942001Y-86166001D03*
X131942001Y-86666001D03*
X131942001Y-87166001D03*
X131942001Y-87666001D03*
X131942001Y-88166001D03*
X131942001Y-88666001D03*
X131942001Y-89166001D03*
X131942001Y-89666001D03*
X131942001Y-90166001D03*
X131942001Y-90666001D03*
X131942001Y-91166001D03*
X131942001Y-91666001D03*
X131942001Y-92166001D03*
X131942001Y-92666001D03*
X131942001Y-93166001D03*
X131942001Y-93666001D03*
X131942001Y-94166001D03*
X131942001Y-94666001D03*
X131942001Y-95166001D03*
X131942001Y-95666001D03*
X131942001Y-96166001D03*
%TD*%
D59*
%TO.C,U12*%
X143045000Y-108651000D03*
X143045000Y-109601000D03*
X143045000Y-110551000D03*
X145245000Y-110551000D03*
X145245000Y-108651000D03*
%TD*%
D60*
%TO.C,Y2*%
X140800000Y-102324000D03*
X138600000Y-102324000D03*
X138600000Y-103924000D03*
X140800000Y-103924000D03*
%TD*%
D20*
%TO.C,R83*%
X158092000Y-122555000D03*
X157122000Y-122555000D03*
%TD*%
D61*
%TO.C,J20*%
X150055000Y-116969000D03*
X148655000Y-116969000D03*
X147255000Y-116969000D03*
X145855000Y-116969000D03*
D62*
X145385000Y-124079000D03*
X150225000Y-124079000D03*
X145385000Y-120239000D03*
X150225000Y-120239000D03*
%TD*%
D63*
%TO.C,apendix*%
X136328000Y-109963000D03*
X133928000Y-109963000D03*
D64*
X135128000Y-114463000D03*
%TD*%
D31*
%TO.C,L11*%
X168249500Y-122174000D03*
X169824500Y-122174000D03*
%TD*%
D22*
%TO.C,C49*%
X156591000Y-119784000D03*
X156591000Y-120754000D03*
%TD*%
D45*
%TO.C,J14*%
X185000000Y-62000000D03*
%TD*%
D65*
%TO.C,P2*%
X133604000Y-62357000D03*
D66*
X133604000Y-64897000D03*
X133604000Y-67437000D03*
%TD*%
D67*
%TO.C,J5*%
X175768000Y-93305000D03*
X175768000Y-88305000D03*
%TD*%
%TO.C,J4*%
X182252000Y-93305000D03*
X182252000Y-88305000D03*
%TD*%
D32*
%TO.C,C60*%
X124079000Y-114648000D03*
X124079000Y-120048000D03*
%TD*%
D21*
%TO.C,C62*%
X136929000Y-70104000D03*
X137899000Y-70104000D03*
%TD*%
D27*
%TO.C,C41*%
X156845000Y-70716000D03*
X156845000Y-69746000D03*
%TD*%
D22*
%TO.C,C63*%
X141986000Y-69746000D03*
X141986000Y-70716000D03*
%TD*%
%TO.C,C51*%
X122809000Y-66063000D03*
X122809000Y-67033000D03*
%TD*%
D68*
%TO.C,C92*%
X111636000Y-118999000D03*
X108836000Y-118999000D03*
%TD*%
%TO.C,C93*%
X112020000Y-82169000D03*
X109220000Y-82169000D03*
%TD*%
%TO.C,C121*%
X112014000Y-106680000D03*
X109214000Y-106680000D03*
%TD*%
%TO.C,C122*%
X112017000Y-94361000D03*
X109217000Y-94361000D03*
%TD*%
D20*
%TO.C,R85*%
X127462000Y-111760000D03*
X126492000Y-111760000D03*
%TD*%
D31*
%TO.C,R17*%
X140690500Y-106553000D03*
X142265500Y-106553000D03*
%TD*%
D69*
%TO.C,C5*%
X128016000Y-121363500D03*
X128016000Y-123238500D03*
%TD*%
D22*
%TO.C,R21*%
X133985000Y-118514000D03*
X133985000Y-119484000D03*
%TD*%
D70*
%TO.C,J3*%
X192913000Y-75311000D03*
X192913000Y-63881000D03*
D71*
X186563000Y-74046000D03*
X184023000Y-72776000D03*
X186563000Y-71506000D03*
X184023000Y-70236000D03*
X186563000Y-68966000D03*
X184023000Y-67696000D03*
X186563000Y-66426000D03*
D72*
X184023000Y-65156000D03*
D73*
X197813000Y-76221000D03*
X197813000Y-73681000D03*
X197813000Y-65511000D03*
X197813000Y-62971000D03*
D74*
X189863000Y-77341000D03*
X189863000Y-61851000D03*
%TD*%
D75*
%TO.C,D11*%
X135017000Y-121097000D03*
X135017000Y-122997000D03*
X137017000Y-122047000D03*
%TD*%
D46*
%TO.C,J16*%
X179782000Y-81285000D03*
%TD*%
D76*
%TO.C,C86*%
X176019000Y-74930000D03*
X178819000Y-74930000D03*
%TD*%
D22*
%TO.C,R84*%
X181483000Y-75715000D03*
X181483000Y-76685000D03*
%TD*%
D28*
%TO.C,R95*%
X178689000Y-66929000D03*
X178689000Y-65354000D03*
%TD*%
%TO.C,R94*%
X180213000Y-76860500D03*
X180213000Y-75285500D03*
%TD*%
D21*
%TO.C,R33*%
X166774000Y-69088000D03*
X167744000Y-69088000D03*
%TD*%
%TO.C,R25*%
X166774000Y-68072000D03*
X167744000Y-68072000D03*
%TD*%
D27*
%TO.C,R32*%
X169799000Y-75860000D03*
X169799000Y-74890000D03*
%TD*%
D21*
%TO.C,R26*%
X166867000Y-73470000D03*
X167837000Y-73470000D03*
%TD*%
D27*
%TO.C,R39*%
X175895000Y-73233000D03*
X175895000Y-72263000D03*
%TD*%
D21*
%TO.C,R36*%
X174902000Y-68834000D03*
X175872000Y-68834000D03*
%TD*%
%TO.C,R34*%
X166740000Y-67056000D03*
X167710000Y-67056000D03*
%TD*%
%TO.C,R27*%
X166867000Y-74486000D03*
X167837000Y-74486000D03*
%TD*%
%TO.C,R24*%
X166774000Y-70104000D03*
X167744000Y-70104000D03*
%TD*%
%TO.C,R35*%
X166867000Y-75502000D03*
X167837000Y-75502000D03*
%TD*%
D77*
%TO.C,U1*%
X173428000Y-68942500D03*
X172928000Y-68942500D03*
X172428000Y-68942500D03*
X171928000Y-68942500D03*
X171428000Y-68942500D03*
X170928000Y-68942500D03*
D78*
X170190500Y-69680000D03*
X170190500Y-70180000D03*
X170190500Y-70680000D03*
X170190500Y-71180000D03*
X170190500Y-71680000D03*
X170190500Y-72180000D03*
D77*
X170928000Y-72917500D03*
X171428000Y-72917500D03*
X171928000Y-72917500D03*
X172428000Y-72917500D03*
X172928000Y-72917500D03*
X173428000Y-72917500D03*
D78*
X174165500Y-72180000D03*
X174165500Y-71680000D03*
X174165500Y-71180000D03*
X174165500Y-70680000D03*
X174165500Y-70180000D03*
X174165500Y-69680000D03*
D79*
X172178000Y-70930000D03*
%TD*%
D21*
%TO.C,C120*%
X174244000Y-66802000D03*
X175214000Y-66802000D03*
%TD*%
D22*
%TO.C,C119*%
X173863000Y-74318000D03*
X173863000Y-75288000D03*
%TD*%
D21*
%TO.C,C82*%
X174267000Y-67818000D03*
X175237000Y-67818000D03*
%TD*%
D22*
%TO.C,C81*%
X174879000Y-74318000D03*
X174879000Y-75288000D03*
%TD*%
D23*
%TO.C,C78*%
X170459500Y-66675000D03*
X168884500Y-66675000D03*
%TD*%
D20*
%TO.C,C79*%
X167744000Y-71120000D03*
X166774000Y-71120000D03*
%TD*%
%TO.C,C57*%
X170815000Y-67818000D03*
X169845000Y-67818000D03*
%TD*%
D27*
%TO.C,C56*%
X169257000Y-64661000D03*
X169257000Y-63691000D03*
%TD*%
D22*
%TO.C,C17*%
X175734000Y-62444000D03*
X175734000Y-63414000D03*
%TD*%
%TO.C,C125*%
X140462000Y-99972000D03*
X140462000Y-100942000D03*
%TD*%
D80*
%TO.C,Y4*%
X170659000Y-64904000D03*
X174459000Y-64904000D03*
X174459000Y-62604000D03*
X170659000Y-62604000D03*
%TD*%
D27*
%TO.C,C13*%
X155702000Y-83416000D03*
X155702000Y-82446000D03*
%TD*%
D81*
%TO.C,U5*%
X154760000Y-82054000D03*
D82*
X154035000Y-81079000D03*
X153535000Y-81079000D03*
X153035000Y-81079000D03*
X152535000Y-81079000D03*
X152035000Y-81079000D03*
D81*
X151310000Y-82054000D03*
X151310000Y-83554000D03*
D82*
X152035000Y-84529000D03*
X152535000Y-84529000D03*
X153035000Y-84529000D03*
X153535000Y-84529000D03*
X154035000Y-84529000D03*
D81*
X154760000Y-83554000D03*
D83*
X153035000Y-82804000D03*
%TD*%
D22*
%TO.C,R62*%
X154051000Y-78890000D03*
X154051000Y-79860000D03*
%TD*%
%TO.C,R59*%
X152146000Y-78890000D03*
X152146000Y-79860000D03*
%TD*%
D20*
%TO.C,R60*%
X152527000Y-86233000D03*
X151557000Y-86233000D03*
%TD*%
D27*
%TO.C,R61*%
X152625964Y-88218846D03*
X152625964Y-87248846D03*
%TD*%
D23*
%TO.C,L10*%
X175666500Y-77216000D03*
X174091500Y-77216000D03*
%TD*%
D17*
%TO.C,C48*%
X168196500Y-72263000D03*
X166321500Y-72263000D03*
%TD*%
D21*
%TO.C,C129*%
X165504000Y-61468000D03*
X166474000Y-61468000D03*
%TD*%
D84*
%TO.C,X1*%
X164592000Y-65108000D03*
X167132000Y-65108000D03*
X167132000Y-62908000D03*
X164592000Y-62908000D03*
%TD*%
D27*
%TO.C,R37*%
X177038000Y-71097000D03*
X177038000Y-70127000D03*
%TD*%
D85*
%TO.C,C124*%
X159893000Y-82059000D03*
X159893000Y-74659000D03*
%TD*%
D22*
%TO.C,R40*%
X176022000Y-70508000D03*
X176022000Y-71478000D03*
%TD*%
D86*
%TO.C,U13*%
X179457500Y-69866000D03*
X178682500Y-69866000D03*
X178682500Y-70366000D03*
X179457500Y-70366000D03*
D87*
X178720000Y-70866000D03*
D88*
X179482500Y-70866000D03*
D86*
X178682500Y-71366000D03*
X179457500Y-71366000D03*
X179457500Y-71866000D03*
X178682500Y-71866000D03*
%TD*%
D22*
%TO.C,R38*%
X176911000Y-68349000D03*
X176911000Y-69319000D03*
%TD*%
D27*
%TO.C,C123*%
X181483000Y-72367000D03*
X181483000Y-71397000D03*
%TD*%
D22*
%TO.C,C126*%
X181483000Y-73175000D03*
X181483000Y-74145000D03*
%TD*%
D27*
%TO.C,C127*%
X181483000Y-68811000D03*
X181483000Y-67841000D03*
%TD*%
D22*
%TO.C,C128*%
X181483000Y-69619000D03*
X181483000Y-70589000D03*
%TD*%
D27*
%TO.C,R98*%
X171831000Y-75923000D03*
X171831000Y-74953000D03*
%TD*%
%TO.C,R99*%
X172847000Y-75923000D03*
X172847000Y-74953000D03*
%TD*%
%TO.C,R30*%
X168783000Y-75860000D03*
X168783000Y-74890000D03*
%TD*%
D21*
%TO.C,C102*%
X178331000Y-68961000D03*
X179301000Y-68961000D03*
%TD*%
%TO.C,C103*%
X177442000Y-73279000D03*
X178412000Y-73279000D03*
%TD*%
D27*
%TO.C,R96*%
X179959000Y-66144000D03*
X179959000Y-65174000D03*
%TD*%
D89*
%TO.C,C33*%
X161262500Y-102500000D03*
X163137500Y-102500000D03*
%TD*%
D69*
%TO.C,C35*%
X153543000Y-107012500D03*
X153543000Y-108887500D03*
%TD*%
D29*
%TO.C,C22*%
X173101000Y-106781500D03*
X173101000Y-108356500D03*
%TD*%
D37*
%TO.C,F1*%
X166575000Y-114598000D03*
X169975000Y-114598000D03*
X169975000Y-104858000D03*
X166575000Y-104858000D03*
%TD*%
D90*
%TO.C,U4*%
X162154000Y-109488000D03*
X162154000Y-107188000D03*
D91*
X155854000Y-107188000D03*
D90*
X162154000Y-104888000D03*
%TD*%
D22*
%TO.C,R71*%
X169291000Y-64666000D03*
X169291000Y-65636000D03*
%TD*%
D20*
%TO.C,R72*%
X164315000Y-61468000D03*
X163345000Y-61468000D03*
%TD*%
D22*
%TO.C,R97*%
X170815000Y-74953000D03*
X170815000Y-75923000D03*
%TD*%
D92*
%TO.C,U2*%
X132207000Y-99016000D03*
X130937000Y-99016000D03*
X129667000Y-99016000D03*
X128397000Y-99016000D03*
X128397000Y-106216000D03*
X129667000Y-106216000D03*
X130937000Y-106216000D03*
X132207000Y-106216000D03*
%TD*%
D31*
%TO.C,L17*%
X179933500Y-62992000D03*
X181508500Y-62992000D03*
%TD*%
D93*
%TO.C,D1*%
X125207000Y-70977000D03*
X126507000Y-70977000D03*
X125857000Y-68977000D03*
%TD*%
%TO.C,D7*%
X175529000Y-119269000D03*
X174229000Y-119269000D03*
X174879000Y-121269000D03*
%TD*%
%TO.C,D8*%
X185308000Y-119523000D03*
X184008000Y-119523000D03*
X184658000Y-121523000D03*
%TD*%
%TO.C,D20*%
X106284000Y-69580000D03*
X107584000Y-69580000D03*
X106934000Y-67580000D03*
%TD*%
%TO.C,D21*%
X103998000Y-69580000D03*
X105298000Y-69580000D03*
X104648000Y-67580000D03*
%TD*%
%TO.C,D25*%
X108951000Y-70469000D03*
X110251000Y-70469000D03*
X109601000Y-68469000D03*
%TD*%
%TO.C,D26*%
X152893000Y-75676000D03*
X154193000Y-75676000D03*
X153543000Y-73676000D03*
%TD*%
%TO.C,D27*%
X149591000Y-75676000D03*
X150891000Y-75676000D03*
X150241000Y-73676000D03*
%TD*%
%TO.C,D28*%
X146289000Y-75803000D03*
X147589000Y-75803000D03*
X146939000Y-73803000D03*
%TD*%
%TO.C,D29*%
X154544000Y-73517000D03*
X155844000Y-73517000D03*
X155194000Y-71517000D03*
%TD*%
%TO.C,D30*%
X151242000Y-73517000D03*
X152542000Y-73517000D03*
X151892000Y-71517000D03*
%TD*%
%TO.C,D31*%
X147940000Y-73517000D03*
X149240000Y-73517000D03*
X148590000Y-71517000D03*
%TD*%
%TO.C,D32*%
X144638000Y-73517000D03*
X145938000Y-73517000D03*
X145288000Y-71517000D03*
%TD*%
%TO.C,D33*%
X142987000Y-75803000D03*
X144287000Y-75803000D03*
X143637000Y-73803000D03*
%TD*%
D87*
%TO.C,D34*%
X159608000Y-71270000D03*
X159608000Y-69970000D03*
X157608000Y-70620000D03*
%TD*%
%TO.C,D35*%
X163306000Y-71389000D03*
X163306000Y-70089000D03*
X161306000Y-70739000D03*
%TD*%
%TO.C,D36*%
X163211000Y-67676000D03*
X163211000Y-68976000D03*
X165211000Y-68326000D03*
%TD*%
%TO.C,D2*%
X136795000Y-71105000D03*
X136795000Y-72405000D03*
X138795000Y-71755000D03*
%TD*%
D27*
%TO.C,R69*%
X160528000Y-70970000D03*
X160528000Y-70000000D03*
%TD*%
D94*
%TO.C,J11*%
X155424000Y-120777000D03*
D95*
X153924000Y-122252000D03*
X153924000Y-119302000D03*
D94*
X152424000Y-120777000D03*
%TD*%
D15*
%TO.C,*%
X158619711Y-88625317D03*
%TD*%
D96*
%TO.C,R31*%
X157126456Y-87753149D03*
X157126456Y-86733149D03*
%TD*%
D97*
%TO.C,R103*%
X162985055Y-88094897D03*
X161965055Y-88094897D03*
%TD*%
D98*
%TO.C,C131*%
X155825000Y-93136422D03*
X157375000Y-93136422D03*
%TD*%
D99*
%TO.C,U14*%
X158500000Y-90485000D03*
X159000000Y-90485000D03*
X159500000Y-90485000D03*
X160000000Y-90485000D03*
X160500000Y-90485000D03*
X160500000Y-87515000D03*
X160000000Y-87515000D03*
X159500000Y-87515000D03*
X159000000Y-87515000D03*
X158500000Y-87515000D03*
D100*
X159500000Y-89000000D03*
%TD*%
D101*
%TO.C,U99*%
X188200000Y-93950000D03*
D102*
X188200000Y-84450000D03*
%TD*%
D15*
%TO.C,*%
X160381500Y-88625317D03*
%TD*%
%TO.C,*%
X158616342Y-89375317D03*
%TD*%
D103*
%TO.C,L13*%
X162366881Y-98381354D03*
X157666881Y-98381354D03*
%TD*%
D104*
%TO.C,C133*%
X161152677Y-94292346D03*
X163052677Y-94292346D03*
%TD*%
%TO.C,C6*%
X160274194Y-85588642D03*
X162174194Y-85588642D03*
%TD*%
D43*
%TO.C,P7*%
X97800000Y-116010000D03*
D44*
X95260000Y-116010000D03*
X92720000Y-116010000D03*
X90180000Y-116010000D03*
%TD*%
D15*
%TO.C,*%
X159500000Y-89375317D03*
%TD*%
D97*
%TO.C,R104*%
X162993370Y-89106551D03*
X161973370Y-89106551D03*
%TD*%
D96*
%TO.C,R102*%
X156107874Y-89711322D03*
X156107874Y-88691322D03*
%TD*%
D105*
%TO.C,R100*%
X156095401Y-86720677D03*
X156095401Y-87740677D03*
%TD*%
D106*
%TO.C,C130*%
X157122299Y-89660535D03*
X157122299Y-88700535D03*
%TD*%
D15*
%TO.C,*%
X159500000Y-88625317D03*
%TD*%
D107*
%TO.C,C132*%
X163059763Y-92237921D03*
X161159763Y-92237921D03*
%TD*%
D36*
%TO.C,D16*%
X154447936Y-99614299D03*
X154447936Y-95614299D03*
%TD*%
D15*
%TO.C,*%
X160378131Y-89375317D03*
%TD*%
D43*
%TO.C,P99*%
X90180000Y-123048000D03*
D44*
X92720000Y-123048000D03*
X95260000Y-123048000D03*
X97800000Y-123048000D03*
%TD*%
D97*
%TO.C,R101*%
X162986762Y-87082027D03*
X161966762Y-87082027D03*
%TD*%
M02*
